<svg xmlns="http://www.w3.org/2000/svg" xmlns:xlink="http://www.w3.org/1999/xlink" width="1080" zoomAndPan="magnify" viewBox="0 0 810 809.999993" height="1080" preserveAspectRatio="xMidYMid meet" version="1.2"><g id="3580a18739"><path style=" stroke:none;fill-rule:nonzero;fill:#000000;fill-opacity:1;" d="M 404.996094 174.597656 C 383.875 174.597656 365.796875 167.078125 350.757812 152.039062 C 335.714844 137 328.195312 118.917969 328.195312 97.800781 C 328.195312 76.679688 335.714844 58.601562 350.757812 43.5625 C 365.796875 28.519531 383.875 21 404.996094 21 C 426.113281 21 444.195312 28.519531 459.234375 43.5625 C 474.273438 58.601562 481.792969 76.679688 481.792969 97.800781 C 481.792969 118.917969 474.273438 137 459.234375 152.039062 C 444.195312 167.078125 426.113281 174.597656 404.996094 174.597656 Z M 289.796875 788.988281 L 289.796875 289.796875 L 59.402344 289.796875 L 59.402344 213 L 750.589844 213 L 750.589844 289.796875 L 520.195312 289.796875 L 520.195312 788.988281 L 443.394531 788.988281 L 443.394531 558.59375 L 366.597656 558.59375 L 366.597656 788.988281 Z M 289.796875 788.988281 "/></g></svg>