<svg xmlns="http://www.w3.org/2000/svg" xmlns:xlink="http://www.w3.org/1999/xlink" width="1080" zoomAndPan="magnify" viewBox="0 0 810 809.999993" height="1080" preserveAspectRatio="xMidYMid meet" version="1.2"><defs><clipPath id="aa6d83accb"><path d="M 11 222.367188 L 799 222.367188 L 799 587.617188 L 11 587.617188 Z M 11 222.367188 "/></clipPath></defs><g id="26d8501d79"><g style="fill:#17aeff;fill-opacity:1;"><g transform="translate(381.640472, 406.283401)"><path style="stroke:none" d="M 0.875 -0.296875 C 0.925781 -0.296875 0.972656 -0.300781 1.015625 -0.3125 C 1.066406 -0.332031 1.101562 -0.347656 1.125 -0.359375 L 1.15625 -0.390625 L 1.296875 -0.109375 C 1.296875 -0.0976562 1.289062 -0.0859375 1.28125 -0.078125 C 1.269531 -0.078125 1.25 -0.0664062 1.21875 -0.046875 C 1.1875 -0.0351562 1.15625 -0.0234375 1.125 -0.015625 C 1.09375 -0.00390625 1.046875 0.00390625 0.984375 0.015625 C 0.929688 0.0234375 0.878906 0.03125 0.828125 0.03125 C 0.691406 0.03125 0.5625 0 0.4375 -0.0625 C 0.320312 -0.132812 0.226562 -0.226562 0.15625 -0.34375 C 0.0820312 -0.457031 0.046875 -0.582031 0.046875 -0.71875 C 0.046875 -0.820312 0.0664062 -0.921875 0.109375 -1.015625 C 0.148438 -1.109375 0.207031 -1.1875 0.28125 -1.25 C 0.351562 -1.3125 0.4375 -1.363281 0.53125 -1.40625 C 0.625 -1.445312 0.722656 -1.46875 0.828125 -1.46875 C 0.921875 -1.46875 1.003906 -1.457031 1.078125 -1.4375 C 1.160156 -1.414062 1.21875 -1.394531 1.25 -1.375 L 1.296875 -1.34375 L 1.15625 -1.0625 C 1.144531 -1.0625 1.128906 -1.066406 1.109375 -1.078125 C 1.097656 -1.085938 1.066406 -1.097656 1.015625 -1.109375 C 0.972656 -1.128906 0.925781 -1.140625 0.875 -1.140625 C 0.789062 -1.140625 0.71875 -1.125 0.65625 -1.09375 C 0.59375 -1.070312 0.539062 -1.039062 0.5 -1 C 0.46875 -0.957031 0.441406 -0.910156 0.421875 -0.859375 C 0.398438 -0.816406 0.390625 -0.769531 0.390625 -0.71875 C 0.390625 -0.613281 0.429688 -0.515625 0.515625 -0.421875 C 0.597656 -0.335938 0.71875 -0.296875 0.875 -0.296875 Z M 0.875 -0.296875 "/></g></g><g style="fill:#17aeff;fill-opacity:1;"><g transform="translate(382.958277, 406.283401)"><path style="stroke:none" d="M 0.171875 -0.109375 C 0.0859375 -0.203125 0.046875 -0.3125 0.046875 -0.4375 C 0.046875 -0.570312 0.0859375 -0.6875 0.171875 -0.78125 C 0.253906 -0.875 0.359375 -0.921875 0.484375 -0.921875 C 0.609375 -0.921875 0.707031 -0.882812 0.78125 -0.8125 L 0.78125 -0.890625 L 1.09375 -0.890625 L 1.09375 0 L 0.78125 0 L 0.78125 -0.09375 C 0.707031 -0.0078125 0.609375 0.03125 0.484375 0.03125 C 0.359375 0.03125 0.253906 -0.015625 0.171875 -0.109375 Z M 0.421875 -0.59375 C 0.390625 -0.5625 0.375 -0.515625 0.375 -0.453125 C 0.375 -0.390625 0.390625 -0.335938 0.421875 -0.296875 C 0.460938 -0.253906 0.515625 -0.234375 0.578125 -0.234375 C 0.640625 -0.234375 0.6875 -0.253906 0.71875 -0.296875 C 0.757812 -0.335938 0.78125 -0.390625 0.78125 -0.453125 C 0.78125 -0.515625 0.757812 -0.5625 0.71875 -0.59375 C 0.6875 -0.632812 0.640625 -0.65625 0.578125 -0.65625 C 0.515625 -0.65625 0.460938 -0.632812 0.421875 -0.59375 Z M 0.421875 -0.59375 "/></g></g><g style="fill:#17aeff;fill-opacity:1;"><g transform="translate(384.153578, 406.283401)"><path style="stroke:none" d="M 1.03125 -0.78125 C 1.113281 -0.6875 1.15625 -0.570312 1.15625 -0.4375 C 1.15625 -0.3125 1.113281 -0.203125 1.03125 -0.109375 C 0.945312 -0.015625 0.835938 0.03125 0.703125 0.03125 C 0.585938 0.03125 0.492188 -0.0078125 0.421875 -0.09375 L 0.40625 -0.09375 L 0.40625 0 L 0.109375 0 L 0.109375 -1.5 L 0.421875 -1.5 L 0.421875 -0.8125 C 0.492188 -0.882812 0.585938 -0.921875 0.703125 -0.921875 C 0.835938 -0.921875 0.945312 -0.875 1.03125 -0.78125 Z M 0.765625 -0.296875 C 0.804688 -0.335938 0.828125 -0.390625 0.828125 -0.453125 C 0.828125 -0.515625 0.804688 -0.5625 0.765625 -0.59375 C 0.722656 -0.632812 0.671875 -0.65625 0.609375 -0.65625 C 0.554688 -0.65625 0.507812 -0.632812 0.46875 -0.59375 C 0.425781 -0.5625 0.40625 -0.515625 0.40625 -0.453125 C 0.40625 -0.390625 0.425781 -0.335938 0.46875 -0.296875 C 0.507812 -0.253906 0.554688 -0.234375 0.609375 -0.234375 C 0.671875 -0.234375 0.722656 -0.253906 0.765625 -0.296875 Z M 0.765625 -0.296875 "/></g></g><g style="fill:#17aeff;fill-opacity:1;"><g transform="translate(385.34888, 406.283401)"><path style="stroke:none" d="M 1.015625 -0.40625 L 0.359375 -0.40625 C 0.359375 -0.34375 0.378906 -0.296875 0.421875 -0.265625 C 0.460938 -0.234375 0.507812 -0.21875 0.5625 -0.21875 C 0.601562 -0.21875 0.640625 -0.222656 0.671875 -0.234375 C 0.703125 -0.253906 0.738281 -0.28125 0.78125 -0.3125 L 1 -0.203125 C 0.90625 -0.046875 0.75 0.03125 0.53125 0.03125 C 0.394531 0.03125 0.28125 -0.015625 0.1875 -0.109375 C 0.09375 -0.203125 0.046875 -0.3125 0.046875 -0.4375 C 0.046875 -0.570312 0.09375 -0.6875 0.1875 -0.78125 C 0.28125 -0.875 0.394531 -0.921875 0.53125 -0.921875 C 0.675781 -0.921875 0.789062 -0.878906 0.875 -0.796875 C 0.96875 -0.710938 1.015625 -0.597656 1.015625 -0.453125 C 1.015625 -0.429688 1.015625 -0.414062 1.015625 -0.40625 Z M 0.375 -0.578125 L 0.71875 -0.578125 C 0.707031 -0.617188 0.6875 -0.648438 0.65625 -0.671875 C 0.625 -0.703125 0.585938 -0.71875 0.546875 -0.71875 C 0.492188 -0.71875 0.453125 -0.703125 0.421875 -0.671875 C 0.390625 -0.648438 0.375 -0.617188 0.375 -0.578125 Z M 0.375 -0.578125 "/></g></g><g style="fill:#17aeff;fill-opacity:1;"><g transform="translate(386.404175, 406.283401)"><path style="stroke:none" d="M 0.3125 0.21875 L 0.375 0 C 0.28125 -0.03125 0.203125 -0.0859375 0.140625 -0.171875 C 0.078125 -0.253906 0.046875 -0.347656 0.046875 -0.453125 C 0.046875 -0.578125 0.09375 -0.6875 0.1875 -0.78125 C 0.289062 -0.875 0.40625 -0.921875 0.53125 -0.921875 C 0.59375 -0.921875 0.648438 -0.910156 0.703125 -0.890625 C 0.753906 -0.878906 0.789062 -0.867188 0.8125 -0.859375 L 0.84375 -0.84375 L 0.734375 -0.625 C 0.691406 -0.65625 0.640625 -0.671875 0.578125 -0.671875 C 0.523438 -0.671875 0.476562 -0.648438 0.4375 -0.609375 C 0.394531 -0.566406 0.375 -0.515625 0.375 -0.453125 C 0.375 -0.390625 0.394531 -0.335938 0.4375 -0.296875 C 0.476562 -0.253906 0.523438 -0.234375 0.578125 -0.234375 C 0.609375 -0.234375 0.632812 -0.234375 0.65625 -0.234375 C 0.6875 -0.242188 0.707031 -0.253906 0.71875 -0.265625 L 0.734375 -0.265625 L 0.84375 -0.046875 C 0.832031 -0.046875 0.816406 -0.0390625 0.796875 -0.03125 C 0.785156 -0.0195312 0.753906 -0.0078125 0.703125 0 C 0.648438 0.0195312 0.59375 0.03125 0.53125 0.03125 C 0.519531 0.03125 0.507812 0.03125 0.5 0.03125 L 0.484375 0.109375 C 0.535156 0.109375 0.582031 0.125 0.625 0.15625 C 0.675781 0.1875 0.703125 0.226562 0.703125 0.28125 C 0.703125 0.34375 0.679688 0.394531 0.640625 0.4375 C 0.597656 0.488281 0.53125 0.515625 0.4375 0.515625 C 0.394531 0.515625 0.347656 0.5 0.296875 0.46875 C 0.253906 0.445312 0.222656 0.425781 0.203125 0.40625 L 0.171875 0.375 L 0.296875 0.28125 C 0.296875 0.28125 0.300781 0.285156 0.3125 0.296875 C 0.320312 0.304688 0.335938 0.316406 0.359375 0.328125 C 0.390625 0.347656 0.414062 0.359375 0.4375 0.359375 C 0.46875 0.359375 0.488281 0.347656 0.5 0.328125 C 0.519531 0.316406 0.53125 0.300781 0.53125 0.28125 C 0.53125 0.257812 0.515625 0.238281 0.484375 0.21875 C 0.460938 0.207031 0.441406 0.203125 0.421875 0.203125 C 0.398438 0.203125 0.378906 0.203125 0.359375 0.203125 C 0.347656 0.210938 0.34375 0.21875 0.34375 0.21875 Z M 0.3125 0.21875 "/></g></g><g style="fill:#17aeff;fill-opacity:1;"><g transform="translate(387.254712, 406.283401)"><path style="stroke:none" d="M 0.171875 -0.109375 C 0.0859375 -0.203125 0.046875 -0.3125 0.046875 -0.4375 C 0.046875 -0.570312 0.0859375 -0.6875 0.171875 -0.78125 C 0.253906 -0.875 0.359375 -0.921875 0.484375 -0.921875 C 0.609375 -0.921875 0.707031 -0.882812 0.78125 -0.8125 L 0.78125 -0.890625 L 1.09375 -0.890625 L 1.09375 0 L 0.78125 0 L 0.78125 -0.09375 C 0.707031 -0.0078125 0.609375 0.03125 0.484375 0.03125 C 0.359375 0.03125 0.253906 -0.015625 0.171875 -0.109375 Z M 0.421875 -0.59375 C 0.390625 -0.5625 0.375 -0.515625 0.375 -0.453125 C 0.375 -0.390625 0.390625 -0.335938 0.421875 -0.296875 C 0.460938 -0.253906 0.515625 -0.234375 0.578125 -0.234375 C 0.640625 -0.234375 0.6875 -0.253906 0.71875 -0.296875 C 0.757812 -0.335938 0.78125 -0.390625 0.78125 -0.453125 C 0.78125 -0.515625 0.757812 -0.5625 0.71875 -0.59375 C 0.6875 -0.632812 0.640625 -0.65625 0.578125 -0.65625 C 0.515625 -0.65625 0.460938 -0.632812 0.421875 -0.59375 Z M 0.421875 -0.59375 "/></g></g><g style="fill:#17aeff;fill-opacity:1;"><g transform="translate(388.450013, 406.283401)"><path style="stroke:none" d="M 0.109375 0 L 0.109375 -1.5 L 0.421875 -1.5 L 0.421875 0 Z M 0.109375 0 "/></g></g><g style="fill:#17aeff;fill-opacity:1;"><g transform="translate(388.969785, 406.283401)"><path style="stroke:none" d="M 0.109375 0 L 0.109375 -1.5 L 0.421875 -1.5 L 0.421875 -0.796875 C 0.492188 -0.878906 0.578125 -0.921875 0.671875 -0.921875 C 0.710938 -0.921875 0.753906 -0.914062 0.796875 -0.90625 C 0.847656 -0.894531 0.894531 -0.875 0.9375 -0.84375 C 0.976562 -0.820312 1.007812 -0.789062 1.03125 -0.75 C 1.050781 -0.707031 1.0625 -0.65625 1.0625 -0.59375 L 1.0625 0 L 0.765625 0 L 0.765625 -0.5 C 0.765625 -0.550781 0.75 -0.59375 0.71875 -0.625 C 0.6875 -0.664062 0.644531 -0.6875 0.59375 -0.6875 C 0.550781 -0.6875 0.507812 -0.664062 0.46875 -0.625 C 0.4375 -0.59375 0.421875 -0.550781 0.421875 -0.5 L 0.421875 0 Z M 0.109375 0 "/></g></g><g style="fill:#17aeff;fill-opacity:1;"><g transform="translate(390.126584, 406.283401)"><path style="stroke:none" d="M 0.1875 -0.09375 C 0.09375 -0.1875 0.046875 -0.300781 0.046875 -0.4375 C 0.046875 -0.582031 0.0976562 -0.695312 0.203125 -0.78125 C 0.304688 -0.875 0.429688 -0.921875 0.578125 -0.921875 C 0.734375 -0.921875 0.859375 -0.875 0.953125 -0.78125 C 1.054688 -0.695312 1.109375 -0.582031 1.109375 -0.4375 C 1.109375 -0.300781 1.054688 -0.1875 0.953125 -0.09375 C 0.859375 -0.0078125 0.734375 0.03125 0.578125 0.03125 C 0.421875 0.03125 0.289062 -0.0078125 0.1875 -0.09375 Z M 0.421875 -0.59375 C 0.390625 -0.5625 0.375 -0.515625 0.375 -0.453125 C 0.375 -0.390625 0.390625 -0.335938 0.421875 -0.296875 C 0.460938 -0.253906 0.515625 -0.234375 0.578125 -0.234375 C 0.640625 -0.234375 0.6875 -0.253906 0.71875 -0.296875 C 0.757812 -0.335938 0.78125 -0.390625 0.78125 -0.453125 C 0.78125 -0.515625 0.757812 -0.5625 0.71875 -0.59375 C 0.6875 -0.632812 0.640625 -0.65625 0.578125 -0.65625 C 0.515625 -0.65625 0.460938 -0.632812 0.421875 -0.59375 Z M 0.421875 -0.59375 "/></g></g><g clip-rule="nonzero" clip-path="url(#aa6d83accb)"><path style=" stroke:none;fill-rule:nonzero;fill:#44b9f9;fill-opacity:1;" d="M 194.421875 587.609375 C 277.871094 587.609375 348.382812 531.046875 369.941406 454.195312 L 555.351562 454.195312 L 555.351562 527.75 C 555.351562 554.890625 577.417969 576.957031 604.558594 576.957031 C 631.441406 576.957031 653.507812 554.890625 653.507812 527.75 L 653.507812 454.195312 L 699.671875 454.195312 L 699.671875 527.75 C 699.671875 554.890625 721.738281 576.957031 748.878906 576.957031 C 776.019531 576.957031 798.085938 554.890625 798.085938 527.75 L 798.085938 404.988281 C 798.085938 377.851562 776.019531 355.785156 748.878906 355.785156 L 369.941406 355.785156 C 348.382812 278.929688 277.871094 222.367188 194.421875 222.367188 C 93.726562 222.367188 11.804688 304.292969 11.804688 404.988281 C 11.804688 505.683594 93.726562 587.609375 194.421875 587.609375 Z M 194.421875 320.78125 C 240.839844 320.78125 278.632812 358.574219 278.632812 404.988281 C 278.632812 451.40625 240.839844 489.199219 194.421875 489.199219 C 148.007812 489.199219 110.214844 451.40625 110.214844 404.988281 C 110.214844 358.574219 148.007812 320.78125 194.421875 320.78125 Z M 194.421875 320.78125 "/></g></g></svg>