<svg xmlns="http://www.w3.org/2000/svg" xmlns:xlink="http://www.w3.org/1999/xlink" width="1080" zoomAndPan="magnify" viewBox="0 0 810 809.999993" height="1080" preserveAspectRatio="xMidYMid meet" version="1.2"><defs><clipPath id="3b59cfa479"><path d="M 26.113281 26.113281 L 783.613281 26.113281 L 783.613281 783.613281 L 26.113281 783.613281 Z M 26.113281 26.113281 "/></clipPath></defs><g id="0059f392ed"><g style="fill:#000000;fill-opacity:1;"><g transform="translate(107.161822, 443.011271)"><path style="stroke:none" d="M 0.875 -0.296875 C 0.925781 -0.296875 0.972656 -0.300781 1.015625 -0.3125 C 1.066406 -0.332031 1.101562 -0.347656 1.125 -0.359375 L 1.15625 -0.390625 L 1.296875 -0.109375 C 1.296875 -0.0976562 1.289062 -0.0859375 1.28125 -0.078125 C 1.269531 -0.078125 1.25 -0.0664062 1.21875 -0.046875 C 1.1875 -0.0351562 1.15625 -0.0234375 1.125 -0.015625 C 1.09375 -0.00390625 1.046875 0.00390625 0.984375 0.015625 C 0.929688 0.0234375 0.878906 0.03125 0.828125 0.03125 C 0.691406 0.03125 0.5625 0 0.4375 -0.0625 C 0.320312 -0.132812 0.226562 -0.226562 0.15625 -0.34375 C 0.0820312 -0.457031 0.046875 -0.582031 0.046875 -0.71875 C 0.046875 -0.820312 0.0664062 -0.921875 0.109375 -1.015625 C 0.148438 -1.109375 0.207031 -1.1875 0.28125 -1.25 C 0.351562 -1.3125 0.4375 -1.363281 0.53125 -1.40625 C 0.625 -1.445312 0.722656 -1.46875 0.828125 -1.46875 C 0.921875 -1.46875 1.003906 -1.457031 1.078125 -1.4375 C 1.160156 -1.414062 1.21875 -1.394531 1.25 -1.375 L 1.296875 -1.34375 L 1.15625 -1.0625 C 1.144531 -1.0625 1.128906 -1.066406 1.109375 -1.078125 C 1.097656 -1.085938 1.066406 -1.097656 1.015625 -1.109375 C 0.972656 -1.128906 0.925781 -1.140625 0.875 -1.140625 C 0.789062 -1.140625 0.71875 -1.125 0.65625 -1.09375 C 0.59375 -1.070312 0.539062 -1.039062 0.5 -1 C 0.46875 -0.957031 0.441406 -0.910156 0.421875 -0.859375 C 0.398438 -0.816406 0.390625 -0.769531 0.390625 -0.71875 C 0.390625 -0.613281 0.429688 -0.515625 0.515625 -0.421875 C 0.597656 -0.335938 0.71875 -0.296875 0.875 -0.296875 Z M 0.875 -0.296875 "/></g></g><g style="fill:#000000;fill-opacity:1;"><g transform="translate(108.479627, 443.011271)"><path style="stroke:none" d="M 0.171875 -0.109375 C 0.0859375 -0.203125 0.046875 -0.3125 0.046875 -0.4375 C 0.046875 -0.570312 0.0859375 -0.6875 0.171875 -0.78125 C 0.253906 -0.875 0.359375 -0.921875 0.484375 -0.921875 C 0.609375 -0.921875 0.707031 -0.882812 0.78125 -0.8125 L 0.78125 -0.890625 L 1.09375 -0.890625 L 1.09375 0 L 0.78125 0 L 0.78125 -0.09375 C 0.707031 -0.0078125 0.609375 0.03125 0.484375 0.03125 C 0.359375 0.03125 0.253906 -0.015625 0.171875 -0.109375 Z M 0.421875 -0.59375 C 0.390625 -0.5625 0.375 -0.515625 0.375 -0.453125 C 0.375 -0.390625 0.390625 -0.335938 0.421875 -0.296875 C 0.460938 -0.253906 0.515625 -0.234375 0.578125 -0.234375 C 0.640625 -0.234375 0.6875 -0.253906 0.71875 -0.296875 C 0.757812 -0.335938 0.78125 -0.390625 0.78125 -0.453125 C 0.78125 -0.515625 0.757812 -0.5625 0.71875 -0.59375 C 0.6875 -0.632812 0.640625 -0.65625 0.578125 -0.65625 C 0.515625 -0.65625 0.460938 -0.632812 0.421875 -0.59375 Z M 0.421875 -0.59375 "/></g></g><g style="fill:#000000;fill-opacity:1;"><g transform="translate(109.674928, 443.011271)"><path style="stroke:none" d="M 1.03125 -0.78125 C 1.113281 -0.6875 1.15625 -0.570312 1.15625 -0.4375 C 1.15625 -0.3125 1.113281 -0.203125 1.03125 -0.109375 C 0.945312 -0.015625 0.835938 0.03125 0.703125 0.03125 C 0.585938 0.03125 0.492188 -0.0078125 0.421875 -0.09375 L 0.40625 -0.09375 L 0.40625 0 L 0.109375 0 L 0.109375 -1.5 L 0.421875 -1.5 L 0.421875 -0.8125 C 0.492188 -0.882812 0.585938 -0.921875 0.703125 -0.921875 C 0.835938 -0.921875 0.945312 -0.875 1.03125 -0.78125 Z M 0.765625 -0.296875 C 0.804688 -0.335938 0.828125 -0.390625 0.828125 -0.453125 C 0.828125 -0.515625 0.804688 -0.5625 0.765625 -0.59375 C 0.722656 -0.632812 0.671875 -0.65625 0.609375 -0.65625 C 0.554688 -0.65625 0.507812 -0.632812 0.46875 -0.59375 C 0.425781 -0.5625 0.40625 -0.515625 0.40625 -0.453125 C 0.40625 -0.390625 0.425781 -0.335938 0.46875 -0.296875 C 0.507812 -0.253906 0.554688 -0.234375 0.609375 -0.234375 C 0.671875 -0.234375 0.722656 -0.253906 0.765625 -0.296875 Z M 0.765625 -0.296875 "/></g></g><g style="fill:#000000;fill-opacity:1;"><g transform="translate(110.870229, 443.011271)"><path style="stroke:none" d="M 1.015625 -0.40625 L 0.359375 -0.40625 C 0.359375 -0.34375 0.378906 -0.296875 0.421875 -0.265625 C 0.460938 -0.234375 0.507812 -0.21875 0.5625 -0.21875 C 0.601562 -0.21875 0.640625 -0.222656 0.671875 -0.234375 C 0.703125 -0.253906 0.738281 -0.28125 0.78125 -0.3125 L 1 -0.203125 C 0.90625 -0.046875 0.75 0.03125 0.53125 0.03125 C 0.394531 0.03125 0.28125 -0.015625 0.1875 -0.109375 C 0.09375 -0.203125 0.046875 -0.3125 0.046875 -0.4375 C 0.046875 -0.570312 0.09375 -0.6875 0.1875 -0.78125 C 0.28125 -0.875 0.394531 -0.921875 0.53125 -0.921875 C 0.675781 -0.921875 0.789062 -0.878906 0.875 -0.796875 C 0.96875 -0.710938 1.015625 -0.597656 1.015625 -0.453125 C 1.015625 -0.429688 1.015625 -0.414062 1.015625 -0.40625 Z M 0.375 -0.578125 L 0.71875 -0.578125 C 0.707031 -0.617188 0.6875 -0.648438 0.65625 -0.671875 C 0.625 -0.703125 0.585938 -0.71875 0.546875 -0.71875 C 0.492188 -0.71875 0.453125 -0.703125 0.421875 -0.671875 C 0.390625 -0.648438 0.375 -0.617188 0.375 -0.578125 Z M 0.375 -0.578125 "/></g></g><g style="fill:#000000;fill-opacity:1;"><g transform="translate(111.925525, 443.011271)"><path style="stroke:none" d="M 0.3125 0.21875 L 0.375 0 C 0.28125 -0.03125 0.203125 -0.0859375 0.140625 -0.171875 C 0.078125 -0.253906 0.046875 -0.347656 0.046875 -0.453125 C 0.046875 -0.578125 0.09375 -0.6875 0.1875 -0.78125 C 0.289062 -0.875 0.40625 -0.921875 0.53125 -0.921875 C 0.59375 -0.921875 0.648438 -0.910156 0.703125 -0.890625 C 0.753906 -0.878906 0.789062 -0.867188 0.8125 -0.859375 L 0.84375 -0.84375 L 0.734375 -0.625 C 0.691406 -0.65625 0.640625 -0.671875 0.578125 -0.671875 C 0.523438 -0.671875 0.476562 -0.648438 0.4375 -0.609375 C 0.394531 -0.566406 0.375 -0.515625 0.375 -0.453125 C 0.375 -0.390625 0.394531 -0.335938 0.4375 -0.296875 C 0.476562 -0.253906 0.523438 -0.234375 0.578125 -0.234375 C 0.609375 -0.234375 0.632812 -0.234375 0.65625 -0.234375 C 0.6875 -0.242188 0.707031 -0.253906 0.71875 -0.265625 L 0.734375 -0.265625 L 0.84375 -0.046875 C 0.832031 -0.046875 0.816406 -0.0390625 0.796875 -0.03125 C 0.785156 -0.0195312 0.753906 -0.0078125 0.703125 0 C 0.648438 0.0195312 0.59375 0.03125 0.53125 0.03125 C 0.519531 0.03125 0.507812 0.03125 0.5 0.03125 L 0.484375 0.109375 C 0.535156 0.109375 0.582031 0.125 0.625 0.15625 C 0.675781 0.1875 0.703125 0.226562 0.703125 0.28125 C 0.703125 0.34375 0.679688 0.394531 0.640625 0.4375 C 0.597656 0.488281 0.53125 0.515625 0.4375 0.515625 C 0.394531 0.515625 0.347656 0.5 0.296875 0.46875 C 0.253906 0.445312 0.222656 0.425781 0.203125 0.40625 L 0.171875 0.375 L 0.296875 0.28125 C 0.296875 0.28125 0.300781 0.285156 0.3125 0.296875 C 0.320312 0.304688 0.335938 0.316406 0.359375 0.328125 C 0.390625 0.347656 0.414062 0.359375 0.4375 0.359375 C 0.46875 0.359375 0.488281 0.347656 0.5 0.328125 C 0.519531 0.316406 0.53125 0.300781 0.53125 0.28125 C 0.53125 0.257812 0.515625 0.238281 0.484375 0.21875 C 0.460938 0.207031 0.441406 0.203125 0.421875 0.203125 C 0.398438 0.203125 0.378906 0.203125 0.359375 0.203125 C 0.347656 0.210938 0.34375 0.21875 0.34375 0.21875 Z M 0.3125 0.21875 "/></g></g><g style="fill:#000000;fill-opacity:1;"><g transform="translate(112.776062, 443.011271)"><path style="stroke:none" d="M 0.171875 -0.109375 C 0.0859375 -0.203125 0.046875 -0.3125 0.046875 -0.4375 C 0.046875 -0.570312 0.0859375 -0.6875 0.171875 -0.78125 C 0.253906 -0.875 0.359375 -0.921875 0.484375 -0.921875 C 0.609375 -0.921875 0.707031 -0.882812 0.78125 -0.8125 L 0.78125 -0.890625 L 1.09375 -0.890625 L 1.09375 0 L 0.78125 0 L 0.78125 -0.09375 C 0.707031 -0.0078125 0.609375 0.03125 0.484375 0.03125 C 0.359375 0.03125 0.253906 -0.015625 0.171875 -0.109375 Z M 0.421875 -0.59375 C 0.390625 -0.5625 0.375 -0.515625 0.375 -0.453125 C 0.375 -0.390625 0.390625 -0.335938 0.421875 -0.296875 C 0.460938 -0.253906 0.515625 -0.234375 0.578125 -0.234375 C 0.640625 -0.234375 0.6875 -0.253906 0.71875 -0.296875 C 0.757812 -0.335938 0.78125 -0.390625 0.78125 -0.453125 C 0.78125 -0.515625 0.757812 -0.5625 0.71875 -0.59375 C 0.6875 -0.632812 0.640625 -0.65625 0.578125 -0.65625 C 0.515625 -0.65625 0.460938 -0.632812 0.421875 -0.59375 Z M 0.421875 -0.59375 "/></g></g><g style="fill:#000000;fill-opacity:1;"><g transform="translate(113.971363, 443.011271)"><path style="stroke:none" d="M 0.109375 0 L 0.109375 -1.5 L 0.421875 -1.5 L 0.421875 0 Z M 0.109375 0 "/></g></g><g style="fill:#000000;fill-opacity:1;"><g transform="translate(114.491135, 443.011271)"><path style="stroke:none" d="M 0.109375 0 L 0.109375 -1.5 L 0.421875 -1.5 L 0.421875 -0.796875 C 0.492188 -0.878906 0.578125 -0.921875 0.671875 -0.921875 C 0.710938 -0.921875 0.753906 -0.914062 0.796875 -0.90625 C 0.847656 -0.894531 0.894531 -0.875 0.9375 -0.84375 C 0.976562 -0.820312 1.007812 -0.789062 1.03125 -0.75 C 1.050781 -0.707031 1.0625 -0.65625 1.0625 -0.59375 L 1.0625 0 L 0.765625 0 L 0.765625 -0.5 C 0.765625 -0.550781 0.75 -0.59375 0.71875 -0.625 C 0.6875 -0.664062 0.644531 -0.6875 0.59375 -0.6875 C 0.550781 -0.6875 0.507812 -0.664062 0.46875 -0.625 C 0.4375 -0.59375 0.421875 -0.550781 0.421875 -0.5 L 0.421875 0 Z M 0.109375 0 "/></g></g><g style="fill:#000000;fill-opacity:1;"><g transform="translate(115.647934, 443.011271)"><path style="stroke:none" d="M 0.1875 -0.09375 C 0.09375 -0.1875 0.046875 -0.300781 0.046875 -0.4375 C 0.046875 -0.582031 0.0976562 -0.695312 0.203125 -0.78125 C 0.304688 -0.875 0.429688 -0.921875 0.578125 -0.921875 C 0.734375 -0.921875 0.859375 -0.875 0.953125 -0.78125 C 1.054688 -0.695312 1.109375 -0.582031 1.109375 -0.4375 C 1.109375 -0.300781 1.054688 -0.1875 0.953125 -0.09375 C 0.859375 -0.0078125 0.734375 0.03125 0.578125 0.03125 C 0.421875 0.03125 0.289062 -0.0078125 0.1875 -0.09375 Z M 0.421875 -0.59375 C 0.390625 -0.5625 0.375 -0.515625 0.375 -0.453125 C 0.375 -0.390625 0.390625 -0.335938 0.421875 -0.296875 C 0.460938 -0.253906 0.515625 -0.234375 0.578125 -0.234375 C 0.640625 -0.234375 0.6875 -0.253906 0.71875 -0.296875 C 0.757812 -0.335938 0.78125 -0.390625 0.78125 -0.453125 C 0.78125 -0.515625 0.757812 -0.5625 0.71875 -0.59375 C 0.6875 -0.632812 0.640625 -0.65625 0.578125 -0.65625 C 0.515625 -0.65625 0.460938 -0.632812 0.421875 -0.59375 Z M 0.421875 -0.59375 "/></g></g><path style=" stroke:none;fill-rule:nonzero;fill:#000000;fill-opacity:1;" d="M 164.140625 348.527344 C 177.921875 362.300781 199.0625 341.4375 185.148438 327.519531 L 136.238281 278.613281 L 185.148438 229.703125 C 190.945312 223.902344 190.945312 214.5 185.148438 208.699219 C 179.34375 202.898438 169.941406 202.898438 164.140625 208.699219 L 104.726562 268.109375 C 98.929688 273.910156 98.929688 283.3125 104.726562 289.117188 Z M 164.140625 348.527344 "/><path style=" stroke:none;fill-rule:nonzero;fill:#000000;fill-opacity:1;" d="M 333.675781 348.527344 L 393.085938 289.117188 C 398.886719 283.316406 398.886719 273.910156 393.085938 268.109375 L 333.675781 208.699219 C 327.871094 202.898438 318.472656 202.898438 312.667969 208.699219 C 306.867188 214.496094 306.867188 223.902344 312.667969 229.703125 L 361.578125 278.613281 L 312.667969 327.523438 C 298.746094 341.445312 319.933594 362.261719 333.675781 348.527344 Z M 333.675781 348.527344 "/><path style=" stroke:none;fill-rule:nonzero;fill:#000000;fill-opacity:1;" d="M 234.066406 352.878906 C 240.71875 352.878906 246.777344 348.375 248.464844 341.628906 L 278.167969 222.804688 C 280.160156 214.847656 275.320312 206.78125 267.363281 204.792969 C 259.402344 202.800781 251.339844 207.644531 249.351562 215.597656 L 219.644531 334.421875 C 217.304688 343.785156 224.386719 352.878906 234.066406 352.878906 Z M 234.066406 352.878906 "/><path style=" stroke:none;fill-rule:nonzero;fill:#000000;fill-opacity:1;" d="M 397.4375 441.996094 C 389.234375 441.996094 382.582031 448.648438 382.582031 456.847656 C 382.582031 465.050781 389.234375 471.703125 397.4375 471.703125 L 694.496094 471.703125 C 702.695312 471.703125 709.347656 465.050781 709.347656 456.847656 C 709.347656 448.648438 702.695312 441.996094 694.496094 441.996094 L 679.640625 441.996094 L 679.640625 323.171875 C 679.640625 314.96875 672.992188 308.320312 664.789062 308.320312 C 656.585938 308.320312 649.9375 314.96875 649.9375 323.171875 L 649.9375 441.996094 L 620.230469 441.996094 L 620.230469 293.464844 C 620.230469 285.261719 613.578125 278.613281 605.378906 278.613281 C 597.175781 278.613281 590.523438 285.261719 590.523438 293.464844 L 590.523438 441.996094 L 560.820312 441.996094 L 560.820312 382.582031 C 560.820312 374.378906 554.167969 367.730469 545.964844 367.730469 C 537.765625 367.730469 531.113281 374.378906 531.113281 382.582031 L 531.113281 441.996094 L 501.40625 441.996094 L 501.40625 352.878906 C 501.40625 344.675781 494.757812 338.023438 486.554688 338.023438 C 478.351562 338.023438 471.703125 344.675781 471.703125 352.878906 L 471.703125 441.996094 L 441.996094 441.996094 L 441.996094 397.4375 C 441.996094 389.234375 435.34375 382.582031 427.140625 382.582031 C 418.941406 382.582031 412.289062 389.234375 412.289062 397.4375 L 412.289062 441.996094 Z M 397.4375 441.996094 "/><path style=" stroke:none;fill-rule:nonzero;fill:#000000;fill-opacity:1;" d="M 427.140625 130.082031 L 694.496094 130.082031 C 702.695312 130.082031 709.347656 123.433594 709.347656 115.230469 C 709.347656 107.027344 702.695312 100.378906 694.496094 100.378906 L 427.140625 100.378906 C 418.941406 100.378906 412.289062 107.027344 412.289062 115.230469 C 412.289062 123.433594 418.941406 130.082031 427.140625 130.082031 Z M 427.140625 130.082031 "/><path style=" stroke:none;fill-rule:nonzero;fill:#000000;fill-opacity:1;" d="M 427.140625 189.496094 L 605.378906 189.496094 C 613.578125 189.496094 620.230469 182.84375 620.230469 174.640625 C 620.230469 166.441406 613.578125 159.789062 605.378906 159.789062 L 427.140625 159.789062 C 418.941406 159.789062 412.289062 166.441406 412.289062 174.640625 C 412.289062 182.84375 418.941406 189.496094 427.140625 189.496094 Z M 427.140625 189.496094 "/><path style=" stroke:none;fill-rule:nonzero;fill:#000000;fill-opacity:1;" d="M 709.347656 590.523438 C 709.347656 591.5 709.253906 592.464844 709.0625 593.421875 C 708.871094 594.378906 708.589844 595.308594 708.21875 596.207031 C 707.84375 597.109375 707.386719 597.964844 706.84375 598.777344 C 706.304688 599.585938 705.6875 600.335938 704.996094 601.027344 C 704.308594 601.71875 703.558594 602.332031 702.746094 602.875 C 701.9375 603.417969 701.082031 603.875 700.179688 604.246094 C 699.277344 604.621094 698.347656 604.902344 697.394531 605.09375 C 696.4375 605.28125 695.46875 605.378906 694.496094 605.378906 C 693.519531 605.378906 692.554688 605.28125 691.597656 605.09375 C 690.640625 604.902344 689.710938 604.621094 688.8125 604.246094 C 687.910156 603.875 687.054688 603.417969 686.242188 602.875 C 685.433594 602.332031 684.683594 601.71875 683.992188 601.027344 C 683.304688 600.335938 682.6875 599.585938 682.144531 598.777344 C 681.605469 597.964844 681.144531 597.109375 680.773438 596.207031 C 680.398438 595.308594 680.117188 594.378906 679.929688 593.421875 C 679.738281 592.464844 679.640625 591.5 679.640625 590.523438 C 679.640625 589.550781 679.738281 588.582031 679.929688 587.628906 C 680.117188 586.671875 680.398438 585.742188 680.773438 584.839844 C 681.144531 583.941406 681.605469 583.082031 682.144531 582.273438 C 682.6875 581.460938 683.304688 580.710938 683.992188 580.023438 C 684.683594 579.332031 685.433594 578.71875 686.242188 578.175781 C 687.054688 577.632812 687.910156 577.175781 688.8125 576.800781 C 689.710938 576.429688 690.640625 576.148438 691.597656 575.957031 C 692.554688 575.765625 693.519531 575.671875 694.496094 575.671875 C 695.46875 575.671875 696.4375 575.765625 697.394531 575.957031 C 698.347656 576.148438 699.277344 576.429688 700.179688 576.800781 C 701.082031 577.175781 701.9375 577.632812 702.746094 578.175781 C 703.558594 578.71875 704.308594 579.332031 704.996094 580.023438 C 705.6875 580.710938 706.304688 581.460938 706.84375 582.273438 C 707.386719 583.082031 707.84375 583.941406 708.21875 584.839844 C 708.589844 585.742188 708.871094 586.671875 709.0625 587.628906 C 709.253906 588.582031 709.347656 589.550781 709.347656 590.523438 Z M 709.347656 590.523438 "/><path style=" stroke:none;fill-rule:nonzero;fill:#000000;fill-opacity:1;" d="M 635.082031 575.671875 L 620.230469 575.671875 C 612.027344 575.671875 605.378906 582.324219 605.378906 590.523438 C 605.378906 598.726562 612.027344 605.378906 620.230469 605.378906 L 635.082031 605.378906 C 643.285156 605.378906 649.9375 598.726562 649.9375 590.523438 C 649.9375 582.324219 643.285156 575.671875 635.082031 575.671875 Z M 635.082031 575.671875 "/><path style=" stroke:none;fill-rule:nonzero;fill:#000000;fill-opacity:1;" d="M 560.820312 575.671875 L 545.964844 575.671875 C 537.765625 575.671875 531.113281 582.324219 531.113281 590.523438 C 531.113281 598.726562 537.765625 605.378906 545.964844 605.378906 L 560.820312 605.378906 C 569.019531 605.378906 575.671875 598.726562 575.671875 590.523438 C 575.671875 582.324219 569.019531 575.671875 560.820312 575.671875 Z M 560.820312 575.671875 "/><g clip-rule="nonzero" clip-path="url(#3b59cfa479)"><path style=" stroke:none;fill-rule:nonzero;fill:#000000;fill-opacity:1;" d="M 702.039062 26.113281 L 107.683594 26.113281 C 62.707031 26.113281 26.113281 62.707031 26.113281 107.683594 L 26.113281 583.21875 C 26.113281 628.195312 62.707031 664.789062 107.683594 664.789062 L 330.597656 664.789062 L 330.597656 694.496094 L 315.746094 694.496094 C 274.796875 694.496094 241.480469 727.8125 241.480469 768.761719 C 241.480469 776.960938 248.128906 783.613281 256.332031 783.613281 L 553.390625 783.613281 C 561.59375 783.613281 568.246094 776.960938 568.246094 768.761719 C 568.246094 727.8125 534.929688 694.496094 493.980469 694.496094 L 479.128906 694.496094 L 479.128906 664.789062 L 702.039062 664.789062 C 747.019531 664.789062 783.613281 628.195312 783.613281 583.21875 L 783.613281 107.683594 C 783.613281 62.707031 747.019531 26.113281 702.039062 26.113281 Z M 107.683594 55.820312 L 702.039062 55.820312 C 730.640625 55.820312 753.90625 79.085938 753.90625 107.683594 L 753.90625 516.261719 L 55.820312 516.261719 L 55.820312 107.683594 C 55.820312 79.085938 79.085938 55.820312 107.683594 55.820312 Z M 535.992188 753.90625 L 273.734375 753.90625 C 279.863281 736.617188 296.382812 724.203125 315.746094 724.203125 L 493.980469 724.203125 C 513.34375 724.203125 529.863281 736.617188 535.992188 753.90625 Z M 449.421875 694.496094 L 360.304688 694.496094 L 360.304688 664.789062 L 449.421875 664.789062 Z M 702.039062 635.082031 L 107.683594 635.082031 C 79.085938 635.082031 55.820312 611.816406 55.820312 583.21875 L 55.820312 545.964844 L 753.90625 545.964844 L 753.90625 583.21875 C 753.90625 611.816406 730.640625 635.082031 702.039062 635.082031 Z M 702.039062 635.082031 "/></g></g></svg>