<svg xmlns="http://www.w3.org/2000/svg" xmlns:xlink="http://www.w3.org/1999/xlink" width="1080" zoomAndPan="magnify" viewBox="0 0 810 809.999993" height="1080" preserveAspectRatio="xMidYMid meet" version="1.2"><defs><clipPath id="2278bace4e"><path d="M 59.214844 14.171875 L 634 14.171875 L 634 707 L 59.214844 707 Z M 59.214844 14.171875 "/></clipPath><clipPath id="2b6c331f8c"><path d="M 450 212 L 788.964844 212 L 788.964844 797.921875 L 450 797.921875 Z M 450 212 "/></clipPath></defs><g id="838f975c10"><g style="fill:#17aeff;fill-opacity:1;"><g transform="translate(381.640472, 406.283401)"><path style="stroke:none" d="M 0.875 -0.296875 C 0.925781 -0.296875 0.972656 -0.300781 1.015625 -0.3125 C 1.066406 -0.332031 1.101562 -0.347656 1.125 -0.359375 L 1.15625 -0.390625 L 1.296875 -0.109375 C 1.296875 -0.0976562 1.289062 -0.0859375 1.28125 -0.078125 C 1.269531 -0.078125 1.25 -0.0664062 1.21875 -0.046875 C 1.1875 -0.0351562 1.15625 -0.0234375 1.125 -0.015625 C 1.09375 -0.00390625 1.046875 0.00390625 0.984375 0.015625 C 0.929688 0.0234375 0.878906 0.03125 0.828125 0.03125 C 0.691406 0.03125 0.5625 0 0.4375 -0.0625 C 0.320312 -0.132812 0.226562 -0.226562 0.15625 -0.34375 C 0.0820312 -0.457031 0.046875 -0.582031 0.046875 -0.71875 C 0.046875 -0.820312 0.0664062 -0.921875 0.109375 -1.015625 C 0.148438 -1.109375 0.207031 -1.1875 0.28125 -1.25 C 0.351562 -1.3125 0.4375 -1.363281 0.53125 -1.40625 C 0.625 -1.445312 0.722656 -1.46875 0.828125 -1.46875 C 0.921875 -1.46875 1.003906 -1.457031 1.078125 -1.4375 C 1.160156 -1.414062 1.21875 -1.394531 1.25 -1.375 L 1.296875 -1.34375 L 1.15625 -1.0625 C 1.144531 -1.0625 1.128906 -1.066406 1.109375 -1.078125 C 1.097656 -1.085938 1.066406 -1.097656 1.015625 -1.109375 C 0.972656 -1.128906 0.925781 -1.140625 0.875 -1.140625 C 0.789062 -1.140625 0.71875 -1.125 0.65625 -1.09375 C 0.59375 -1.070312 0.539062 -1.039062 0.5 -1 C 0.46875 -0.957031 0.441406 -0.910156 0.421875 -0.859375 C 0.398438 -0.816406 0.390625 -0.769531 0.390625 -0.71875 C 0.390625 -0.613281 0.429688 -0.515625 0.515625 -0.421875 C 0.597656 -0.335938 0.71875 -0.296875 0.875 -0.296875 Z M 0.875 -0.296875 "/></g></g><g style="fill:#17aeff;fill-opacity:1;"><g transform="translate(382.958277, 406.283401)"><path style="stroke:none" d="M 0.171875 -0.109375 C 0.0859375 -0.203125 0.046875 -0.3125 0.046875 -0.4375 C 0.046875 -0.570312 0.0859375 -0.6875 0.171875 -0.78125 C 0.253906 -0.875 0.359375 -0.921875 0.484375 -0.921875 C 0.609375 -0.921875 0.707031 -0.882812 0.78125 -0.8125 L 0.78125 -0.890625 L 1.09375 -0.890625 L 1.09375 0 L 0.78125 0 L 0.78125 -0.09375 C 0.707031 -0.0078125 0.609375 0.03125 0.484375 0.03125 C 0.359375 0.03125 0.253906 -0.015625 0.171875 -0.109375 Z M 0.421875 -0.59375 C 0.390625 -0.5625 0.375 -0.515625 0.375 -0.453125 C 0.375 -0.390625 0.390625 -0.335938 0.421875 -0.296875 C 0.460938 -0.253906 0.515625 -0.234375 0.578125 -0.234375 C 0.640625 -0.234375 0.6875 -0.253906 0.71875 -0.296875 C 0.757812 -0.335938 0.78125 -0.390625 0.78125 -0.453125 C 0.78125 -0.515625 0.757812 -0.5625 0.71875 -0.59375 C 0.6875 -0.632812 0.640625 -0.65625 0.578125 -0.65625 C 0.515625 -0.65625 0.460938 -0.632812 0.421875 -0.59375 Z M 0.421875 -0.59375 "/></g></g><g style="fill:#17aeff;fill-opacity:1;"><g transform="translate(384.153578, 406.283401)"><path style="stroke:none" d="M 1.03125 -0.78125 C 1.113281 -0.6875 1.15625 -0.570312 1.15625 -0.4375 C 1.15625 -0.3125 1.113281 -0.203125 1.03125 -0.109375 C 0.945312 -0.015625 0.835938 0.03125 0.703125 0.03125 C 0.585938 0.03125 0.492188 -0.0078125 0.421875 -0.09375 L 0.40625 -0.09375 L 0.40625 0 L 0.109375 0 L 0.109375 -1.5 L 0.421875 -1.5 L 0.421875 -0.8125 C 0.492188 -0.882812 0.585938 -0.921875 0.703125 -0.921875 C 0.835938 -0.921875 0.945312 -0.875 1.03125 -0.78125 Z M 0.765625 -0.296875 C 0.804688 -0.335938 0.828125 -0.390625 0.828125 -0.453125 C 0.828125 -0.515625 0.804688 -0.5625 0.765625 -0.59375 C 0.722656 -0.632812 0.671875 -0.65625 0.609375 -0.65625 C 0.554688 -0.65625 0.507812 -0.632812 0.46875 -0.59375 C 0.425781 -0.5625 0.40625 -0.515625 0.40625 -0.453125 C 0.40625 -0.390625 0.425781 -0.335938 0.46875 -0.296875 C 0.507812 -0.253906 0.554688 -0.234375 0.609375 -0.234375 C 0.671875 -0.234375 0.722656 -0.253906 0.765625 -0.296875 Z M 0.765625 -0.296875 "/></g></g><g style="fill:#17aeff;fill-opacity:1;"><g transform="translate(385.34888, 406.283401)"><path style="stroke:none" d="M 1.015625 -0.40625 L 0.359375 -0.40625 C 0.359375 -0.34375 0.378906 -0.296875 0.421875 -0.265625 C 0.460938 -0.234375 0.507812 -0.21875 0.5625 -0.21875 C 0.601562 -0.21875 0.640625 -0.222656 0.671875 -0.234375 C 0.703125 -0.253906 0.738281 -0.28125 0.78125 -0.3125 L 1 -0.203125 C 0.90625 -0.046875 0.75 0.03125 0.53125 0.03125 C 0.394531 0.03125 0.28125 -0.015625 0.1875 -0.109375 C 0.09375 -0.203125 0.046875 -0.3125 0.046875 -0.4375 C 0.046875 -0.570312 0.09375 -0.6875 0.1875 -0.78125 C 0.28125 -0.875 0.394531 -0.921875 0.53125 -0.921875 C 0.675781 -0.921875 0.789062 -0.878906 0.875 -0.796875 C 0.96875 -0.710938 1.015625 -0.597656 1.015625 -0.453125 C 1.015625 -0.429688 1.015625 -0.414062 1.015625 -0.40625 Z M 0.375 -0.578125 L 0.71875 -0.578125 C 0.707031 -0.617188 0.6875 -0.648438 0.65625 -0.671875 C 0.625 -0.703125 0.585938 -0.71875 0.546875 -0.71875 C 0.492188 -0.71875 0.453125 -0.703125 0.421875 -0.671875 C 0.390625 -0.648438 0.375 -0.617188 0.375 -0.578125 Z M 0.375 -0.578125 "/></g></g><g style="fill:#17aeff;fill-opacity:1;"><g transform="translate(386.404175, 406.283401)"><path style="stroke:none" d="M 0.3125 0.21875 L 0.375 0 C 0.28125 -0.03125 0.203125 -0.0859375 0.140625 -0.171875 C 0.078125 -0.253906 0.046875 -0.347656 0.046875 -0.453125 C 0.046875 -0.578125 0.09375 -0.6875 0.1875 -0.78125 C 0.289062 -0.875 0.40625 -0.921875 0.53125 -0.921875 C 0.59375 -0.921875 0.648438 -0.910156 0.703125 -0.890625 C 0.753906 -0.878906 0.789062 -0.867188 0.8125 -0.859375 L 0.84375 -0.84375 L 0.734375 -0.625 C 0.691406 -0.65625 0.640625 -0.671875 0.578125 -0.671875 C 0.523438 -0.671875 0.476562 -0.648438 0.4375 -0.609375 C 0.394531 -0.566406 0.375 -0.515625 0.375 -0.453125 C 0.375 -0.390625 0.394531 -0.335938 0.4375 -0.296875 C 0.476562 -0.253906 0.523438 -0.234375 0.578125 -0.234375 C 0.609375 -0.234375 0.632812 -0.234375 0.65625 -0.234375 C 0.6875 -0.242188 0.707031 -0.253906 0.71875 -0.265625 L 0.734375 -0.265625 L 0.84375 -0.046875 C 0.832031 -0.046875 0.816406 -0.0390625 0.796875 -0.03125 C 0.785156 -0.0195312 0.753906 -0.0078125 0.703125 0 C 0.648438 0.0195312 0.59375 0.03125 0.53125 0.03125 C 0.519531 0.03125 0.507812 0.03125 0.5 0.03125 L 0.484375 0.109375 C 0.535156 0.109375 0.582031 0.125 0.625 0.15625 C 0.675781 0.1875 0.703125 0.226562 0.703125 0.28125 C 0.703125 0.34375 0.679688 0.394531 0.640625 0.4375 C 0.597656 0.488281 0.53125 0.515625 0.4375 0.515625 C 0.394531 0.515625 0.347656 0.5 0.296875 0.46875 C 0.253906 0.445312 0.222656 0.425781 0.203125 0.40625 L 0.171875 0.375 L 0.296875 0.28125 C 0.296875 0.28125 0.300781 0.285156 0.3125 0.296875 C 0.320312 0.304688 0.335938 0.316406 0.359375 0.328125 C 0.390625 0.347656 0.414062 0.359375 0.4375 0.359375 C 0.46875 0.359375 0.488281 0.347656 0.5 0.328125 C 0.519531 0.316406 0.53125 0.300781 0.53125 0.28125 C 0.53125 0.257812 0.515625 0.238281 0.484375 0.21875 C 0.460938 0.207031 0.441406 0.203125 0.421875 0.203125 C 0.398438 0.203125 0.378906 0.203125 0.359375 0.203125 C 0.347656 0.210938 0.34375 0.21875 0.34375 0.21875 Z M 0.3125 0.21875 "/></g></g><g style="fill:#17aeff;fill-opacity:1;"><g transform="translate(387.254712, 406.283401)"><path style="stroke:none" d="M 0.171875 -0.109375 C 0.0859375 -0.203125 0.046875 -0.3125 0.046875 -0.4375 C 0.046875 -0.570312 0.0859375 -0.6875 0.171875 -0.78125 C 0.253906 -0.875 0.359375 -0.921875 0.484375 -0.921875 C 0.609375 -0.921875 0.707031 -0.882812 0.78125 -0.8125 L 0.78125 -0.890625 L 1.09375 -0.890625 L 1.09375 0 L 0.78125 0 L 0.78125 -0.09375 C 0.707031 -0.0078125 0.609375 0.03125 0.484375 0.03125 C 0.359375 0.03125 0.253906 -0.015625 0.171875 -0.109375 Z M 0.421875 -0.59375 C 0.390625 -0.5625 0.375 -0.515625 0.375 -0.453125 C 0.375 -0.390625 0.390625 -0.335938 0.421875 -0.296875 C 0.460938 -0.253906 0.515625 -0.234375 0.578125 -0.234375 C 0.640625 -0.234375 0.6875 -0.253906 0.71875 -0.296875 C 0.757812 -0.335938 0.78125 -0.390625 0.78125 -0.453125 C 0.78125 -0.515625 0.757812 -0.5625 0.71875 -0.59375 C 0.6875 -0.632812 0.640625 -0.65625 0.578125 -0.65625 C 0.515625 -0.65625 0.460938 -0.632812 0.421875 -0.59375 Z M 0.421875 -0.59375 "/></g></g><g style="fill:#17aeff;fill-opacity:1;"><g transform="translate(388.450013, 406.283401)"><path style="stroke:none" d="M 0.109375 0 L 0.109375 -1.5 L 0.421875 -1.5 L 0.421875 0 Z M 0.109375 0 "/></g></g><g style="fill:#17aeff;fill-opacity:1;"><g transform="translate(388.969785, 406.283401)"><path style="stroke:none" d="M 0.109375 0 L 0.109375 -1.5 L 0.421875 -1.5 L 0.421875 -0.796875 C 0.492188 -0.878906 0.578125 -0.921875 0.671875 -0.921875 C 0.710938 -0.921875 0.753906 -0.914062 0.796875 -0.90625 C 0.847656 -0.894531 0.894531 -0.875 0.9375 -0.84375 C 0.976562 -0.820312 1.007812 -0.789062 1.03125 -0.75 C 1.050781 -0.707031 1.0625 -0.65625 1.0625 -0.59375 L 1.0625 0 L 0.765625 0 L 0.765625 -0.5 C 0.765625 -0.550781 0.75 -0.59375 0.71875 -0.625 C 0.6875 -0.664062 0.644531 -0.6875 0.59375 -0.6875 C 0.550781 -0.6875 0.507812 -0.664062 0.46875 -0.625 C 0.4375 -0.59375 0.421875 -0.550781 0.421875 -0.5 L 0.421875 0 Z M 0.109375 0 "/></g></g><g style="fill:#17aeff;fill-opacity:1;"><g transform="translate(390.126584, 406.283401)"><path style="stroke:none" d="M 0.1875 -0.09375 C 0.09375 -0.1875 0.046875 -0.300781 0.046875 -0.4375 C 0.046875 -0.582031 0.0976562 -0.695312 0.203125 -0.78125 C 0.304688 -0.875 0.429688 -0.921875 0.578125 -0.921875 C 0.734375 -0.921875 0.859375 -0.875 0.953125 -0.78125 C 1.054688 -0.695312 1.109375 -0.582031 1.109375 -0.4375 C 1.109375 -0.300781 1.054688 -0.1875 0.953125 -0.09375 C 0.859375 -0.0078125 0.734375 0.03125 0.578125 0.03125 C 0.421875 0.03125 0.289062 -0.0078125 0.1875 -0.09375 Z M 0.421875 -0.59375 C 0.390625 -0.5625 0.375 -0.515625 0.375 -0.453125 C 0.375 -0.390625 0.390625 -0.335938 0.421875 -0.296875 C 0.460938 -0.253906 0.515625 -0.234375 0.578125 -0.234375 C 0.640625 -0.234375 0.6875 -0.253906 0.71875 -0.296875 C 0.757812 -0.335938 0.78125 -0.390625 0.78125 -0.453125 C 0.78125 -0.515625 0.757812 -0.5625 0.71875 -0.59375 C 0.6875 -0.632812 0.640625 -0.65625 0.578125 -0.65625 C 0.515625 -0.65625 0.460938 -0.632812 0.421875 -0.59375 Z M 0.421875 -0.59375 "/></g></g><g clip-rule="nonzero" clip-path="url(#2278bace4e)"><path style=" stroke:none;fill-rule:nonzero;fill:#44b9f9;fill-opacity:1;" d="M 539.269531 677.597656 L 87.949219 677.597656 L 87.949219 42.902344 L 605.21875 42.902344 L 605.21875 189.753906 C 605.21875 197.6875 611.648438 204.121094 619.585938 204.121094 C 627.519531 204.121094 633.953125 197.6875 633.953125 189.753906 L 633.953125 28.535156 C 633.953125 20.601562 627.523438 14.167969 619.585938 14.167969 L 73.582031 14.167969 C 65.648438 14.167969 59.214844 20.601562 59.214844 28.535156 L 59.214844 691.964844 C 59.214844 699.898438 65.644531 706.332031 73.582031 706.332031 L 539.269531 706.332031 C 547.207031 706.332031 553.640625 699.902344 553.640625 691.964844 C 553.636719 684.03125 547.207031 677.597656 539.269531 677.597656 Z M 539.269531 677.597656 "/></g><path style=" stroke:none;fill-rule:nonzero;fill:#44b9f9;fill-opacity:1;" d="M 274.5 127.015625 C 274.5 119.082031 268.066406 112.648438 260.128906 112.648438 L 171.8125 112.648438 C 163.878906 112.648438 157.445312 119.082031 157.445312 127.015625 L 157.445312 215.335938 C 157.445312 223.269531 163.878906 229.703125 171.8125 229.703125 L 260.128906 229.703125 C 268.066406 229.703125 274.5 223.269531 274.5 215.335938 Z M 245.765625 200.96875 L 186.183594 200.96875 L 186.183594 141.386719 L 245.765625 141.386719 Z M 245.765625 200.96875 "/><path style=" stroke:none;fill-rule:nonzero;fill:#44b9f9;fill-opacity:1;" d="M 535.71875 146.921875 C 535.71875 138.984375 529.285156 132.550781 521.351562 132.550781 L 314.863281 132.550781 C 306.929688 132.550781 300.496094 138.984375 300.496094 146.921875 C 300.496094 154.855469 306.925781 161.289062 314.863281 161.289062 L 521.351562 161.289062 C 529.285156 161.289062 535.71875 154.855469 535.71875 146.921875 Z M 535.71875 146.921875 "/><path style=" stroke:none;fill-rule:nonzero;fill:#44b9f9;fill-opacity:1;" d="M 314.863281 216.019531 L 418.105469 216.019531 C 426.039062 216.019531 432.472656 209.589844 432.472656 201.652344 C 432.472656 193.714844 426.042969 187.285156 418.105469 187.285156 L 314.863281 187.285156 C 306.929688 187.285156 300.496094 193.714844 300.496094 201.652344 C 300.496094 209.589844 306.929688 216.019531 314.863281 216.019531 Z M 314.863281 216.019531 "/><path style=" stroke:none;fill-rule:nonzero;fill:#44b9f9;fill-opacity:1;" d="M 274.5 316.09375 C 274.5 308.15625 268.066406 301.722656 260.128906 301.722656 L 171.8125 301.722656 C 163.878906 301.722656 157.445312 308.15625 157.445312 316.09375 L 157.445312 404.410156 C 157.445312 412.34375 163.878906 418.777344 171.8125 418.777344 L 260.128906 418.777344 C 268.066406 418.777344 274.5 412.347656 274.5 404.410156 Z M 245.765625 390.042969 L 186.183594 390.042969 L 186.183594 330.457031 L 245.765625 330.457031 Z M 245.765625 390.042969 "/><path style=" stroke:none;fill-rule:nonzero;fill:#44b9f9;fill-opacity:1;" d="M 428.910156 321.625 L 314.863281 321.625 C 306.929688 321.625 300.496094 328.058594 300.496094 335.996094 C 300.496094 343.929688 306.925781 350.363281 314.863281 350.363281 L 428.910156 350.363281 C 436.84375 350.363281 443.277344 343.929688 443.277344 335.996094 C 443.277344 328.058594 436.84375 321.625 428.910156 321.625 Z M 428.910156 321.625 "/><path style=" stroke:none;fill-rule:nonzero;fill:#44b9f9;fill-opacity:1;" d="M 314.863281 405.09375 L 418.105469 405.09375 C 426.039062 405.09375 432.472656 398.660156 432.472656 390.726562 C 432.472656 382.789062 426.042969 376.355469 418.105469 376.355469 L 314.863281 376.355469 C 306.929688 376.355469 300.496094 382.789062 300.496094 390.726562 C 300.496094 398.660156 306.929688 405.09375 314.863281 405.09375 Z M 314.863281 405.09375 "/><path style=" stroke:none;fill-rule:nonzero;fill:#44b9f9;fill-opacity:1;" d="M 260.128906 490.800781 L 171.8125 490.800781 C 163.878906 490.800781 157.445312 497.230469 157.445312 505.167969 L 157.445312 593.484375 C 157.445312 601.417969 163.878906 607.851562 171.8125 607.851562 L 260.128906 607.851562 C 268.066406 607.851562 274.5 601.421875 274.5 593.484375 L 274.5 505.167969 C 274.5 497.230469 268.066406 490.800781 260.128906 490.800781 Z M 245.765625 579.117188 L 186.183594 579.117188 L 186.183594 519.53125 L 245.765625 519.53125 Z M 245.765625 579.117188 "/><path style=" stroke:none;fill-rule:nonzero;fill:#44b9f9;fill-opacity:1;" d="M 506.71875 525.066406 C 506.71875 517.132812 500.289062 510.699219 492.351562 510.699219 L 314.863281 510.699219 C 306.929688 510.699219 300.496094 517.132812 300.496094 525.066406 C 300.496094 533.003906 306.925781 539.4375 314.863281 539.4375 L 492.351562 539.4375 C 500.289062 539.4375 506.71875 533.003906 506.71875 525.066406 Z M 506.71875 525.066406 "/><path style=" stroke:none;fill-rule:nonzero;fill:#44b9f9;fill-opacity:1;" d="M 308.148438 589.566406 C 300.210938 589.566406 293.777344 595.996094 293.777344 603.933594 C 293.777344 611.867188 300.210938 618.300781 308.148438 618.300781 L 411.390625 618.300781 C 419.324219 618.300781 425.757812 611.867188 425.757812 603.933594 C 425.757812 596 419.328125 589.566406 411.390625 589.566406 Z M 308.148438 589.566406 "/><g clip-rule="nonzero" clip-path="url(#2b6c331f8c)"><path style=" stroke:none;fill-rule:nonzero;fill:#44b9f9;fill-opacity:1;" d="M 775.648438 316.175781 C 767.117188 296.003906 754.90625 277.890625 739.355469 262.339844 C 723.804688 246.789062 705.691406 234.578125 685.519531 226.046875 C 664.628906 217.210938 642.445312 212.730469 619.585938 212.730469 C 596.726562 212.730469 574.542969 217.210938 553.648438 226.046875 C 533.476562 234.578125 515.367188 246.789062 499.816406 262.339844 C 484.261719 277.890625 472.054688 296 463.523438 316.175781 C 454.6875 337.066406 450.207031 359.25 450.207031 382.109375 C 450.207031 404.96875 454.6875 427.152344 463.523438 448.042969 C 472.054688 468.214844 484.265625 486.328125 499.816406 501.878906 C 515.367188 517.429688 533.476562 529.640625 553.648438 538.171875 C 563.171875 542.199219 572.964844 545.320312 582.96875 547.527344 L 582.96875 572.929688 C 572.136719 576.191406 564.222656 586.257812 564.222656 598.144531 L 564.222656 742.238281 C 564.222656 772.765625 589.058594 797.601562 619.585938 797.601562 C 650.113281 797.601562 674.949219 772.765625 674.949219 742.238281 L 674.949219 598.144531 C 674.949219 586.257812 667.035156 576.191406 656.199219 572.929688 L 656.199219 547.527344 C 666.203125 545.320312 675.996094 542.203125 685.519531 538.171875 C 705.691406 529.640625 723.804688 517.429688 739.355469 501.878906 C 754.90625 486.328125 767.117188 468.214844 775.648438 448.042969 C 784.484375 427.152344 788.964844 404.96875 788.964844 382.109375 C 788.964844 359.25 784.484375 337.0625 775.648438 316.175781 Z M 627.464844 571.808594 L 611.703125 571.808594 L 611.703125 552.066406 L 619.015625 552.355469 C 619.394531 552.371094 619.773438 552.371094 620.148438 552.355469 L 627.464844 552.066406 Z M 646.214844 742.238281 C 646.214844 756.921875 634.269531 768.867188 619.585938 768.867188 C 604.902344 768.867188 592.957031 756.921875 592.957031 742.238281 L 592.957031 600.542969 L 646.214844 600.542969 Z M 719.035156 481.558594 C 692.472656 508.125 657.152344 522.753906 619.585938 522.753906 C 582.019531 522.753906 546.699219 508.125 520.132812 481.558594 C 493.570312 454.996094 478.941406 419.675781 478.941406 382.109375 C 478.941406 344.542969 493.570312 309.222656 520.132812 282.65625 C 546.699219 256.09375 582.019531 241.464844 619.585938 241.464844 C 657.152344 241.464844 692.472656 256.09375 719.035156 282.65625 C 745.601562 309.222656 760.230469 344.542969 760.230469 382.109375 C 760.230469 419.675781 745.597656 454.996094 719.035156 481.558594 Z M 719.035156 481.558594 "/></g><path style=" stroke:none;fill-rule:nonzero;fill:#44b9f9;fill-opacity:1;" d="M 674.835938 330.59375 L 585.132812 420.292969 L 549.429688 384.589844 C 543.820312 378.976562 534.722656 378.976562 529.109375 384.589844 C 523.5 390.199219 523.5 399.296875 529.109375 404.90625 L 574.972656 450.769531 C 577.777344 453.574219 581.453125 454.976562 585.132812 454.976562 C 588.808594 454.976562 592.484375 453.574219 595.289062 450.769531 L 695.152344 350.910156 C 700.761719 345.296875 700.761719 336.203125 695.152344 330.589844 C 689.542969 324.980469 680.445312 324.980469 674.835938 330.59375 Z M 674.835938 330.59375 "/></g></svg>