<svg xmlns="http://www.w3.org/2000/svg" xmlns:xlink="http://www.w3.org/1999/xlink" width="1080" zoomAndPan="magnify" viewBox="0 0 810 809.999993" height="1080" preserveAspectRatio="xMidYMid meet" version="1.2"><defs/><g id="54227710e1"><g style="fill:#17aeff;fill-opacity:1;"><g transform="translate(381.640472, 406.283401)"><path style="stroke:none" d="M 0.875 -0.296875 C 0.925781 -0.296875 0.972656 -0.300781 1.015625 -0.3125 C 1.066406 -0.332031 1.101562 -0.347656 1.125 -0.359375 L 1.15625 -0.390625 L 1.296875 -0.109375 C 1.296875 -0.0976562 1.289062 -0.0859375 1.28125 -0.078125 C 1.269531 -0.078125 1.25 -0.0664062 1.21875 -0.046875 C 1.1875 -0.0351562 1.15625 -0.0234375 1.125 -0.015625 C 1.09375 -0.00390625 1.046875 0.00390625 0.984375 0.015625 C 0.929688 0.0234375 0.878906 0.03125 0.828125 0.03125 C 0.691406 0.03125 0.5625 0 0.4375 -0.0625 C 0.320312 -0.132812 0.226562 -0.226562 0.15625 -0.34375 C 0.0820312 -0.457031 0.046875 -0.582031 0.046875 -0.71875 C 0.046875 -0.820312 0.0664062 -0.921875 0.109375 -1.015625 C 0.148438 -1.109375 0.207031 -1.1875 0.28125 -1.25 C 0.351562 -1.3125 0.4375 -1.363281 0.53125 -1.40625 C 0.625 -1.445312 0.722656 -1.46875 0.828125 -1.46875 C 0.921875 -1.46875 1.003906 -1.457031 1.078125 -1.4375 C 1.160156 -1.414062 1.21875 -1.394531 1.25 -1.375 L 1.296875 -1.34375 L 1.15625 -1.0625 C 1.144531 -1.0625 1.128906 -1.066406 1.109375 -1.078125 C 1.097656 -1.085938 1.066406 -1.097656 1.015625 -1.109375 C 0.972656 -1.128906 0.925781 -1.140625 0.875 -1.140625 C 0.789062 -1.140625 0.71875 -1.125 0.65625 -1.09375 C 0.59375 -1.070312 0.539062 -1.039062 0.5 -1 C 0.46875 -0.957031 0.441406 -0.910156 0.421875 -0.859375 C 0.398438 -0.816406 0.390625 -0.769531 0.390625 -0.71875 C 0.390625 -0.613281 0.429688 -0.515625 0.515625 -0.421875 C 0.597656 -0.335938 0.71875 -0.296875 0.875 -0.296875 Z M 0.875 -0.296875 "/></g></g><g style="fill:#17aeff;fill-opacity:1;"><g transform="translate(382.958277, 406.283401)"><path style="stroke:none" d="M 0.171875 -0.109375 C 0.0859375 -0.203125 0.046875 -0.3125 0.046875 -0.4375 C 0.046875 -0.570312 0.0859375 -0.6875 0.171875 -0.78125 C 0.253906 -0.875 0.359375 -0.921875 0.484375 -0.921875 C 0.609375 -0.921875 0.707031 -0.882812 0.78125 -0.8125 L 0.78125 -0.890625 L 1.09375 -0.890625 L 1.09375 0 L 0.78125 0 L 0.78125 -0.09375 C 0.707031 -0.0078125 0.609375 0.03125 0.484375 0.03125 C 0.359375 0.03125 0.253906 -0.015625 0.171875 -0.109375 Z M 0.421875 -0.59375 C 0.390625 -0.5625 0.375 -0.515625 0.375 -0.453125 C 0.375 -0.390625 0.390625 -0.335938 0.421875 -0.296875 C 0.460938 -0.253906 0.515625 -0.234375 0.578125 -0.234375 C 0.640625 -0.234375 0.6875 -0.253906 0.71875 -0.296875 C 0.757812 -0.335938 0.78125 -0.390625 0.78125 -0.453125 C 0.78125 -0.515625 0.757812 -0.5625 0.71875 -0.59375 C 0.6875 -0.632812 0.640625 -0.65625 0.578125 -0.65625 C 0.515625 -0.65625 0.460938 -0.632812 0.421875 -0.59375 Z M 0.421875 -0.59375 "/></g></g><g style="fill:#17aeff;fill-opacity:1;"><g transform="translate(384.153578, 406.283401)"><path style="stroke:none" d="M 1.03125 -0.78125 C 1.113281 -0.6875 1.15625 -0.570312 1.15625 -0.4375 C 1.15625 -0.3125 1.113281 -0.203125 1.03125 -0.109375 C 0.945312 -0.015625 0.835938 0.03125 0.703125 0.03125 C 0.585938 0.03125 0.492188 -0.0078125 0.421875 -0.09375 L 0.40625 -0.09375 L 0.40625 0 L 0.109375 0 L 0.109375 -1.5 L 0.421875 -1.5 L 0.421875 -0.8125 C 0.492188 -0.882812 0.585938 -0.921875 0.703125 -0.921875 C 0.835938 -0.921875 0.945312 -0.875 1.03125 -0.78125 Z M 0.765625 -0.296875 C 0.804688 -0.335938 0.828125 -0.390625 0.828125 -0.453125 C 0.828125 -0.515625 0.804688 -0.5625 0.765625 -0.59375 C 0.722656 -0.632812 0.671875 -0.65625 0.609375 -0.65625 C 0.554688 -0.65625 0.507812 -0.632812 0.46875 -0.59375 C 0.425781 -0.5625 0.40625 -0.515625 0.40625 -0.453125 C 0.40625 -0.390625 0.425781 -0.335938 0.46875 -0.296875 C 0.507812 -0.253906 0.554688 -0.234375 0.609375 -0.234375 C 0.671875 -0.234375 0.722656 -0.253906 0.765625 -0.296875 Z M 0.765625 -0.296875 "/></g></g><g style="fill:#17aeff;fill-opacity:1;"><g transform="translate(385.34888, 406.283401)"><path style="stroke:none" d="M 1.015625 -0.40625 L 0.359375 -0.40625 C 0.359375 -0.34375 0.378906 -0.296875 0.421875 -0.265625 C 0.460938 -0.234375 0.507812 -0.21875 0.5625 -0.21875 C 0.601562 -0.21875 0.640625 -0.222656 0.671875 -0.234375 C 0.703125 -0.253906 0.738281 -0.28125 0.78125 -0.3125 L 1 -0.203125 C 0.90625 -0.046875 0.75 0.03125 0.53125 0.03125 C 0.394531 0.03125 0.28125 -0.015625 0.1875 -0.109375 C 0.09375 -0.203125 0.046875 -0.3125 0.046875 -0.4375 C 0.046875 -0.570312 0.09375 -0.6875 0.1875 -0.78125 C 0.28125 -0.875 0.394531 -0.921875 0.53125 -0.921875 C 0.675781 -0.921875 0.789062 -0.878906 0.875 -0.796875 C 0.96875 -0.710938 1.015625 -0.597656 1.015625 -0.453125 C 1.015625 -0.429688 1.015625 -0.414062 1.015625 -0.40625 Z M 0.375 -0.578125 L 0.71875 -0.578125 C 0.707031 -0.617188 0.6875 -0.648438 0.65625 -0.671875 C 0.625 -0.703125 0.585938 -0.71875 0.546875 -0.71875 C 0.492188 -0.71875 0.453125 -0.703125 0.421875 -0.671875 C 0.390625 -0.648438 0.375 -0.617188 0.375 -0.578125 Z M 0.375 -0.578125 "/></g></g><g style="fill:#17aeff;fill-opacity:1;"><g transform="translate(386.404175, 406.283401)"><path style="stroke:none" d="M 0.3125 0.21875 L 0.375 0 C 0.28125 -0.03125 0.203125 -0.0859375 0.140625 -0.171875 C 0.078125 -0.253906 0.046875 -0.347656 0.046875 -0.453125 C 0.046875 -0.578125 0.09375 -0.6875 0.1875 -0.78125 C 0.289062 -0.875 0.40625 -0.921875 0.53125 -0.921875 C 0.59375 -0.921875 0.648438 -0.910156 0.703125 -0.890625 C 0.753906 -0.878906 0.789062 -0.867188 0.8125 -0.859375 L 0.84375 -0.84375 L 0.734375 -0.625 C 0.691406 -0.65625 0.640625 -0.671875 0.578125 -0.671875 C 0.523438 -0.671875 0.476562 -0.648438 0.4375 -0.609375 C 0.394531 -0.566406 0.375 -0.515625 0.375 -0.453125 C 0.375 -0.390625 0.394531 -0.335938 0.4375 -0.296875 C 0.476562 -0.253906 0.523438 -0.234375 0.578125 -0.234375 C 0.609375 -0.234375 0.632812 -0.234375 0.65625 -0.234375 C 0.6875 -0.242188 0.707031 -0.253906 0.71875 -0.265625 L 0.734375 -0.265625 L 0.84375 -0.046875 C 0.832031 -0.046875 0.816406 -0.0390625 0.796875 -0.03125 C 0.785156 -0.0195312 0.753906 -0.0078125 0.703125 0 C 0.648438 0.0195312 0.59375 0.03125 0.53125 0.03125 C 0.519531 0.03125 0.507812 0.03125 0.5 0.03125 L 0.484375 0.109375 C 0.535156 0.109375 0.582031 0.125 0.625 0.15625 C 0.675781 0.1875 0.703125 0.226562 0.703125 0.28125 C 0.703125 0.34375 0.679688 0.394531 0.640625 0.4375 C 0.597656 0.488281 0.53125 0.515625 0.4375 0.515625 C 0.394531 0.515625 0.347656 0.5 0.296875 0.46875 C 0.253906 0.445312 0.222656 0.425781 0.203125 0.40625 L 0.171875 0.375 L 0.296875 0.28125 C 0.296875 0.28125 0.300781 0.285156 0.3125 0.296875 C 0.320312 0.304688 0.335938 0.316406 0.359375 0.328125 C 0.390625 0.347656 0.414062 0.359375 0.4375 0.359375 C 0.46875 0.359375 0.488281 0.347656 0.5 0.328125 C 0.519531 0.316406 0.53125 0.300781 0.53125 0.28125 C 0.53125 0.257812 0.515625 0.238281 0.484375 0.21875 C 0.460938 0.207031 0.441406 0.203125 0.421875 0.203125 C 0.398438 0.203125 0.378906 0.203125 0.359375 0.203125 C 0.347656 0.210938 0.34375 0.21875 0.34375 0.21875 Z M 0.3125 0.21875 "/></g></g><g style="fill:#17aeff;fill-opacity:1;"><g transform="translate(387.254712, 406.283401)"><path style="stroke:none" d="M 0.171875 -0.109375 C 0.0859375 -0.203125 0.046875 -0.3125 0.046875 -0.4375 C 0.046875 -0.570312 0.0859375 -0.6875 0.171875 -0.78125 C 0.253906 -0.875 0.359375 -0.921875 0.484375 -0.921875 C 0.609375 -0.921875 0.707031 -0.882812 0.78125 -0.8125 L 0.78125 -0.890625 L 1.09375 -0.890625 L 1.09375 0 L 0.78125 0 L 0.78125 -0.09375 C 0.707031 -0.0078125 0.609375 0.03125 0.484375 0.03125 C 0.359375 0.03125 0.253906 -0.015625 0.171875 -0.109375 Z M 0.421875 -0.59375 C 0.390625 -0.5625 0.375 -0.515625 0.375 -0.453125 C 0.375 -0.390625 0.390625 -0.335938 0.421875 -0.296875 C 0.460938 -0.253906 0.515625 -0.234375 0.578125 -0.234375 C 0.640625 -0.234375 0.6875 -0.253906 0.71875 -0.296875 C 0.757812 -0.335938 0.78125 -0.390625 0.78125 -0.453125 C 0.78125 -0.515625 0.757812 -0.5625 0.71875 -0.59375 C 0.6875 -0.632812 0.640625 -0.65625 0.578125 -0.65625 C 0.515625 -0.65625 0.460938 -0.632812 0.421875 -0.59375 Z M 0.421875 -0.59375 "/></g></g><g style="fill:#17aeff;fill-opacity:1;"><g transform="translate(388.450013, 406.283401)"><path style="stroke:none" d="M 0.109375 0 L 0.109375 -1.5 L 0.421875 -1.5 L 0.421875 0 Z M 0.109375 0 "/></g></g><g style="fill:#17aeff;fill-opacity:1;"><g transform="translate(388.969785, 406.283401)"><path style="stroke:none" d="M 0.109375 0 L 0.109375 -1.5 L 0.421875 -1.5 L 0.421875 -0.796875 C 0.492188 -0.878906 0.578125 -0.921875 0.671875 -0.921875 C 0.710938 -0.921875 0.753906 -0.914062 0.796875 -0.90625 C 0.847656 -0.894531 0.894531 -0.875 0.9375 -0.84375 C 0.976562 -0.820312 1.007812 -0.789062 1.03125 -0.75 C 1.050781 -0.707031 1.0625 -0.65625 1.0625 -0.59375 L 1.0625 0 L 0.765625 0 L 0.765625 -0.5 C 0.765625 -0.550781 0.75 -0.59375 0.71875 -0.625 C 0.6875 -0.664062 0.644531 -0.6875 0.59375 -0.6875 C 0.550781 -0.6875 0.507812 -0.664062 0.46875 -0.625 C 0.4375 -0.59375 0.421875 -0.550781 0.421875 -0.5 L 0.421875 0 Z M 0.109375 0 "/></g></g><g style="fill:#17aeff;fill-opacity:1;"><g transform="translate(390.126584, 406.283401)"><path style="stroke:none" d="M 0.1875 -0.09375 C 0.09375 -0.1875 0.046875 -0.300781 0.046875 -0.4375 C 0.046875 -0.582031 0.0976562 -0.695312 0.203125 -0.78125 C 0.304688 -0.875 0.429688 -0.921875 0.578125 -0.921875 C 0.734375 -0.921875 0.859375 -0.875 0.953125 -0.78125 C 1.054688 -0.695312 1.109375 -0.582031 1.109375 -0.4375 C 1.109375 -0.300781 1.054688 -0.1875 0.953125 -0.09375 C 0.859375 -0.0078125 0.734375 0.03125 0.578125 0.03125 C 0.421875 0.03125 0.289062 -0.0078125 0.1875 -0.09375 Z M 0.421875 -0.59375 C 0.390625 -0.5625 0.375 -0.515625 0.375 -0.453125 C 0.375 -0.390625 0.390625 -0.335938 0.421875 -0.296875 C 0.460938 -0.253906 0.515625 -0.234375 0.578125 -0.234375 C 0.640625 -0.234375 0.6875 -0.253906 0.71875 -0.296875 C 0.757812 -0.335938 0.78125 -0.390625 0.78125 -0.453125 C 0.78125 -0.515625 0.757812 -0.5625 0.71875 -0.59375 C 0.6875 -0.632812 0.640625 -0.65625 0.578125 -0.65625 C 0.515625 -0.65625 0.460938 -0.632812 0.421875 -0.59375 Z M 0.421875 -0.59375 "/></g></g><path style=" stroke:none;fill-rule:nonzero;fill:#000000;fill-opacity:1;" d="M 383.84375 448.691406 L 368.832031 448.691406 C 364.515625 448.691406 360.589844 446.914062 357.738281 444.0625 L 357.289062 443.632812 C 354.714844 440.839844 353.113281 437.089844 353.113281 432.96875 C 353.113281 427.285156 348.503906 422.65625 342.800781 422.65625 C 337.101562 422.65625 332.492188 427.265625 332.492188 432.96875 C 332.492188 442.597656 336.320312 451.40625 342.527344 457.949219 L 343.171875 458.652344 C 349.128906 464.609375 357.152344 468.496094 366.039062 469.179688 L 366.039062 480.839844 C 366.039062 486.523438 370.644531 491.152344 376.347656 491.152344 C 382.050781 491.152344 386.65625 486.542969 386.65625 480.839844 L 386.65625 469.179688 C 395.542969 468.496094 403.566406 464.609375 409.523438 458.652344 L 409.523438 458.613281 C 416.101562 452.03125 420.183594 442.949219 420.183594 432.96875 C 420.183594 422.988281 416.082031 413.90625 409.523438 407.324219 L 409.484375 407.285156 C 402.902344 400.703125 393.824219 396.621094 383.84375 396.621094 L 368.832031 396.621094 C 364.515625 396.621094 360.589844 394.84375 357.738281 391.992188 L 357.289062 391.5625 C 354.714844 388.769531 353.113281 385.019531 353.113281 380.898438 C 353.113281 376.5625 354.871094 372.636719 357.699219 369.804688 L 357.738281 369.804688 C 360.589844 366.953125 364.515625 365.175781 368.832031 365.175781 L 383.84375 365.175781 C 388.179688 365.175781 392.105469 366.953125 394.957031 369.785156 C 397.785156 372.636719 399.5625 376.582031 399.5625 380.898438 C 399.5625 386.582031 404.171875 391.210938 409.875 391.210938 C 415.574219 391.210938 420.183594 386.601562 420.183594 380.898438 C 420.183594 370.917969 416.082031 361.835938 409.523438 355.253906 L 409.484375 355.214844 C 403.527344 349.257812 395.523438 345.390625 386.65625 344.6875 L 386.65625 333.027344 C 386.65625 327.324219 382.050781 322.714844 376.347656 322.714844 C 370.644531 322.714844 366.039062 327.324219 366.039062 333.027344 L 366.039062 344.6875 C 357.152344 345.371094 349.128906 349.257812 343.191406 355.234375 C 336.59375 361.835938 332.492188 370.917969 332.492188 380.878906 C 332.492188 390.507812 336.320312 399.316406 342.527344 405.859375 L 343.171875 406.5625 C 349.753906 413.144531 358.851562 417.226562 368.851562 417.226562 L 383.863281 417.226562 C 388.199219 417.226562 392.125 419.003906 394.976562 421.835938 C 397.804688 424.6875 399.582031 428.632812 399.582031 432.949219 C 399.582031 437.285156 397.804688 441.210938 394.957031 444.042969 C 392.085938 446.914062 388.160156 448.691406 383.84375 448.691406 Z M 383.84375 448.691406 "/><path style=" stroke:none;fill-rule:nonzero;fill:#000000;fill-opacity:1;" d="M 376.347656 537.695312 C 412.449219 537.695312 445.136719 523.046875 468.78125 499.394531 C 492.449219 475.742188 507.070312 443.046875 507.070312 406.933594 C 507.070312 370.820312 492.429688 338.125 468.78125 314.472656 C 445.136719 290.796875 412.449219 276.167969 376.347656 276.167969 C 340.246094 276.167969 307.558594 290.816406 283.914062 314.472656 C 260.246094 338.144531 245.625 370.839844 245.625 406.933594 C 245.625 443.046875 260.265625 475.742188 283.914062 499.394531 C 307.558594 523.066406 340.246094 537.695312 376.347656 537.695312 Z M 300.433594 330.996094 C 319.859375 311.5625 346.707031 299.546875 376.347656 299.546875 C 405.988281 299.546875 432.835938 311.582031 452.261719 330.996094 C 471.691406 350.429688 483.699219 377.285156 483.699219 406.933594 C 483.699219 436.582031 471.671875 463.4375 452.261719 482.871094 C 432.835938 502.304688 405.988281 514.316406 376.347656 514.316406 C 346.707031 514.316406 319.859375 502.285156 300.433594 482.871094 C 281.003906 463.4375 268.996094 436.582031 268.996094 406.933594 C 268.976562 377.285156 281.003906 350.429688 300.433594 330.996094 Z M 300.433594 330.996094 "/><path style=" stroke:none;fill-rule:nonzero;fill:#000000;fill-opacity:1;" d="M 794.820312 503.496094 L 738.667969 231.617188 L 738.667969 231.558594 C 738.667969 229.898438 738.316406 228.316406 737.691406 226.890625 L 723.867188 160.015625 C 722.578125 153.707031 716.425781 149.644531 710.140625 150.933594 L 376.5625 219.878906 L 25.707031 219.878906 C 19.261719 219.878906 14.027344 225.113281 14.027344 231.558594 L 14.027344 582.308594 C 14.027344 588.753906 19.261719 593.988281 25.707031 593.988281 L 73.640625 593.988281 L 85.238281 650.101562 C 86.527344 656.410156 92.679688 660.472656 98.964844 659.183594 L 414.382812 593.988281 L 726.96875 593.988281 C 733.414062 593.988281 738.648438 588.753906 738.648438 582.308594 L 738.648438 526.972656 L 785.722656 517.246094 C 792.03125 515.957031 796.109375 509.804688 794.820312 503.496094 Z M 703.421875 176.109375 L 712.460938 219.878906 L 491.628906 219.878906 Z M 105.703125 634.007812 L 97.441406 593.988281 L 299.339844 593.988281 Z M 715.292969 570.628906 L 37.402344 570.628906 L 37.402344 243.257812 L 715.292969 243.257812 Z M 738.667969 503.183594 L 738.667969 346.71875 L 769.652344 496.777344 Z M 738.667969 503.183594 "/><path style=" stroke:none;fill-rule:nonzero;fill:#000000;fill-opacity:1;" d="M 85.765625 355.605469 C 92.210938 355.605469 97.441406 350.371094 97.441406 343.925781 L 97.441406 300.132812 L 141.21875 300.132812 C 147.664062 300.132812 152.894531 294.898438 152.894531 288.453125 C 152.894531 282.007812 147.664062 276.773438 141.21875 276.773438 L 85.765625 276.773438 C 79.324219 276.773438 74.089844 282.007812 74.089844 288.453125 L 74.089844 343.925781 C 74.070312 350.371094 79.304688 355.605469 85.765625 355.605469 Z M 85.765625 355.605469 "/><path style=" stroke:none;fill-rule:nonzero;fill:#000000;fill-opacity:1;" d="M 141.21875 513.730469 L 97.441406 513.730469 L 97.441406 469.941406 C 97.441406 463.496094 92.210938 458.261719 85.765625 458.261719 C 79.324219 458.261719 74.089844 463.496094 74.089844 469.941406 L 74.089844 525.410156 C 74.089844 531.855469 79.324219 537.089844 85.765625 537.089844 L 141.21875 537.089844 C 147.664062 537.089844 152.894531 531.855469 152.894531 525.410156 C 152.894531 518.964844 147.664062 513.730469 141.21875 513.730469 Z M 141.21875 513.730469 "/><path style=" stroke:none;fill-rule:nonzero;fill:#000000;fill-opacity:1;" d="M 611.457031 300.132812 L 655.234375 300.132812 L 655.234375 343.925781 C 655.234375 350.371094 660.464844 355.605469 666.910156 355.605469 C 673.351562 355.605469 678.585938 350.371094 678.585938 343.925781 L 678.585938 288.453125 C 678.585938 282.007812 673.351562 276.773438 666.910156 276.773438 L 611.457031 276.773438 C 605.011719 276.773438 599.78125 282.007812 599.78125 288.453125 C 599.78125 294.898438 605.011719 300.132812 611.457031 300.132812 Z M 611.457031 300.132812 "/><path style=" stroke:none;fill-rule:nonzero;fill:#000000;fill-opacity:1;" d="M 611.457031 537.109375 L 666.910156 537.109375 C 673.351562 537.109375 678.585938 531.875 678.585938 525.429688 L 678.585938 469.960938 C 678.585938 463.515625 673.351562 458.28125 666.910156 458.28125 C 660.464844 458.28125 655.234375 463.515625 655.234375 469.960938 L 655.234375 513.75 L 611.457031 513.75 C 605.011719 513.75 599.78125 518.984375 599.78125 525.429688 C 599.78125 531.875 605.011719 537.109375 611.457031 537.109375 Z M 611.457031 537.109375 "/></g></svg>