<svg xmlns="http://www.w3.org/2000/svg" xmlns:xlink="http://www.w3.org/1999/xlink" width="1080" zoomAndPan="magnify" viewBox="0 0 810 809.999993" height="1080" preserveAspectRatio="xMidYMid meet" version="1.2"><defs><clipPath id="4185d358a1"><path d="M 44.757812 18 L 762 18 L 762 796 L 44.757812 796 Z M 44.757812 18 "/></clipPath></defs><g id="e1a9621960"><g style="fill:#000000;fill-opacity:1;"><g transform="translate(107.161822, 443.011271)"><path style="stroke:none" d="M 0.875 -0.296875 C 0.925781 -0.296875 0.972656 -0.300781 1.015625 -0.3125 C 1.066406 -0.332031 1.101562 -0.347656 1.125 -0.359375 L 1.15625 -0.390625 L 1.296875 -0.109375 C 1.296875 -0.0976562 1.289062 -0.0859375 1.28125 -0.078125 C 1.269531 -0.078125 1.25 -0.0664062 1.21875 -0.046875 C 1.1875 -0.0351562 1.15625 -0.0234375 1.125 -0.015625 C 1.09375 -0.00390625 1.046875 0.00390625 0.984375 0.015625 C 0.929688 0.0234375 0.878906 0.03125 0.828125 0.03125 C 0.691406 0.03125 0.5625 0 0.4375 -0.0625 C 0.320312 -0.132812 0.226562 -0.226562 0.15625 -0.34375 C 0.0820312 -0.457031 0.046875 -0.582031 0.046875 -0.71875 C 0.046875 -0.820312 0.0664062 -0.921875 0.109375 -1.015625 C 0.148438 -1.109375 0.207031 -1.1875 0.28125 -1.25 C 0.351562 -1.3125 0.4375 -1.363281 0.53125 -1.40625 C 0.625 -1.445312 0.722656 -1.46875 0.828125 -1.46875 C 0.921875 -1.46875 1.003906 -1.457031 1.078125 -1.4375 C 1.160156 -1.414062 1.21875 -1.394531 1.25 -1.375 L 1.296875 -1.34375 L 1.15625 -1.0625 C 1.144531 -1.0625 1.128906 -1.066406 1.109375 -1.078125 C 1.097656 -1.085938 1.066406 -1.097656 1.015625 -1.109375 C 0.972656 -1.128906 0.925781 -1.140625 0.875 -1.140625 C 0.789062 -1.140625 0.71875 -1.125 0.65625 -1.09375 C 0.59375 -1.070312 0.539062 -1.039062 0.5 -1 C 0.46875 -0.957031 0.441406 -0.910156 0.421875 -0.859375 C 0.398438 -0.816406 0.390625 -0.769531 0.390625 -0.71875 C 0.390625 -0.613281 0.429688 -0.515625 0.515625 -0.421875 C 0.597656 -0.335938 0.71875 -0.296875 0.875 -0.296875 Z M 0.875 -0.296875 "/></g></g><g style="fill:#000000;fill-opacity:1;"><g transform="translate(108.479627, 443.011271)"><path style="stroke:none" d="M 0.171875 -0.109375 C 0.0859375 -0.203125 0.046875 -0.3125 0.046875 -0.4375 C 0.046875 -0.570312 0.0859375 -0.6875 0.171875 -0.78125 C 0.253906 -0.875 0.359375 -0.921875 0.484375 -0.921875 C 0.609375 -0.921875 0.707031 -0.882812 0.78125 -0.8125 L 0.78125 -0.890625 L 1.09375 -0.890625 L 1.09375 0 L 0.78125 0 L 0.78125 -0.09375 C 0.707031 -0.0078125 0.609375 0.03125 0.484375 0.03125 C 0.359375 0.03125 0.253906 -0.015625 0.171875 -0.109375 Z M 0.421875 -0.59375 C 0.390625 -0.5625 0.375 -0.515625 0.375 -0.453125 C 0.375 -0.390625 0.390625 -0.335938 0.421875 -0.296875 C 0.460938 -0.253906 0.515625 -0.234375 0.578125 -0.234375 C 0.640625 -0.234375 0.6875 -0.253906 0.71875 -0.296875 C 0.757812 -0.335938 0.78125 -0.390625 0.78125 -0.453125 C 0.78125 -0.515625 0.757812 -0.5625 0.71875 -0.59375 C 0.6875 -0.632812 0.640625 -0.65625 0.578125 -0.65625 C 0.515625 -0.65625 0.460938 -0.632812 0.421875 -0.59375 Z M 0.421875 -0.59375 "/></g></g><g style="fill:#000000;fill-opacity:1;"><g transform="translate(109.674928, 443.011271)"><path style="stroke:none" d="M 1.03125 -0.78125 C 1.113281 -0.6875 1.15625 -0.570312 1.15625 -0.4375 C 1.15625 -0.3125 1.113281 -0.203125 1.03125 -0.109375 C 0.945312 -0.015625 0.835938 0.03125 0.703125 0.03125 C 0.585938 0.03125 0.492188 -0.0078125 0.421875 -0.09375 L 0.40625 -0.09375 L 0.40625 0 L 0.109375 0 L 0.109375 -1.5 L 0.421875 -1.5 L 0.421875 -0.8125 C 0.492188 -0.882812 0.585938 -0.921875 0.703125 -0.921875 C 0.835938 -0.921875 0.945312 -0.875 1.03125 -0.78125 Z M 0.765625 -0.296875 C 0.804688 -0.335938 0.828125 -0.390625 0.828125 -0.453125 C 0.828125 -0.515625 0.804688 -0.5625 0.765625 -0.59375 C 0.722656 -0.632812 0.671875 -0.65625 0.609375 -0.65625 C 0.554688 -0.65625 0.507812 -0.632812 0.46875 -0.59375 C 0.425781 -0.5625 0.40625 -0.515625 0.40625 -0.453125 C 0.40625 -0.390625 0.425781 -0.335938 0.46875 -0.296875 C 0.507812 -0.253906 0.554688 -0.234375 0.609375 -0.234375 C 0.671875 -0.234375 0.722656 -0.253906 0.765625 -0.296875 Z M 0.765625 -0.296875 "/></g></g><g style="fill:#000000;fill-opacity:1;"><g transform="translate(110.870229, 443.011271)"><path style="stroke:none" d="M 1.015625 -0.40625 L 0.359375 -0.40625 C 0.359375 -0.34375 0.378906 -0.296875 0.421875 -0.265625 C 0.460938 -0.234375 0.507812 -0.21875 0.5625 -0.21875 C 0.601562 -0.21875 0.640625 -0.222656 0.671875 -0.234375 C 0.703125 -0.253906 0.738281 -0.28125 0.78125 -0.3125 L 1 -0.203125 C 0.90625 -0.046875 0.75 0.03125 0.53125 0.03125 C 0.394531 0.03125 0.28125 -0.015625 0.1875 -0.109375 C 0.09375 -0.203125 0.046875 -0.3125 0.046875 -0.4375 C 0.046875 -0.570312 0.09375 -0.6875 0.1875 -0.78125 C 0.28125 -0.875 0.394531 -0.921875 0.53125 -0.921875 C 0.675781 -0.921875 0.789062 -0.878906 0.875 -0.796875 C 0.96875 -0.710938 1.015625 -0.597656 1.015625 -0.453125 C 1.015625 -0.429688 1.015625 -0.414062 1.015625 -0.40625 Z M 0.375 -0.578125 L 0.71875 -0.578125 C 0.707031 -0.617188 0.6875 -0.648438 0.65625 -0.671875 C 0.625 -0.703125 0.585938 -0.71875 0.546875 -0.71875 C 0.492188 -0.71875 0.453125 -0.703125 0.421875 -0.671875 C 0.390625 -0.648438 0.375 -0.617188 0.375 -0.578125 Z M 0.375 -0.578125 "/></g></g><g style="fill:#000000;fill-opacity:1;"><g transform="translate(111.925525, 443.011271)"><path style="stroke:none" d="M 0.3125 0.21875 L 0.375 0 C 0.28125 -0.03125 0.203125 -0.0859375 0.140625 -0.171875 C 0.078125 -0.253906 0.046875 -0.347656 0.046875 -0.453125 C 0.046875 -0.578125 0.09375 -0.6875 0.1875 -0.78125 C 0.289062 -0.875 0.40625 -0.921875 0.53125 -0.921875 C 0.59375 -0.921875 0.648438 -0.910156 0.703125 -0.890625 C 0.753906 -0.878906 0.789062 -0.867188 0.8125 -0.859375 L 0.84375 -0.84375 L 0.734375 -0.625 C 0.691406 -0.65625 0.640625 -0.671875 0.578125 -0.671875 C 0.523438 -0.671875 0.476562 -0.648438 0.4375 -0.609375 C 0.394531 -0.566406 0.375 -0.515625 0.375 -0.453125 C 0.375 -0.390625 0.394531 -0.335938 0.4375 -0.296875 C 0.476562 -0.253906 0.523438 -0.234375 0.578125 -0.234375 C 0.609375 -0.234375 0.632812 -0.234375 0.65625 -0.234375 C 0.6875 -0.242188 0.707031 -0.253906 0.71875 -0.265625 L 0.734375 -0.265625 L 0.84375 -0.046875 C 0.832031 -0.046875 0.816406 -0.0390625 0.796875 -0.03125 C 0.785156 -0.0195312 0.753906 -0.0078125 0.703125 0 C 0.648438 0.0195312 0.59375 0.03125 0.53125 0.03125 C 0.519531 0.03125 0.507812 0.03125 0.5 0.03125 L 0.484375 0.109375 C 0.535156 0.109375 0.582031 0.125 0.625 0.15625 C 0.675781 0.1875 0.703125 0.226562 0.703125 0.28125 C 0.703125 0.34375 0.679688 0.394531 0.640625 0.4375 C 0.597656 0.488281 0.53125 0.515625 0.4375 0.515625 C 0.394531 0.515625 0.347656 0.5 0.296875 0.46875 C 0.253906 0.445312 0.222656 0.425781 0.203125 0.40625 L 0.171875 0.375 L 0.296875 0.28125 C 0.296875 0.28125 0.300781 0.285156 0.3125 0.296875 C 0.320312 0.304688 0.335938 0.316406 0.359375 0.328125 C 0.390625 0.347656 0.414062 0.359375 0.4375 0.359375 C 0.46875 0.359375 0.488281 0.347656 0.5 0.328125 C 0.519531 0.316406 0.53125 0.300781 0.53125 0.28125 C 0.53125 0.257812 0.515625 0.238281 0.484375 0.21875 C 0.460938 0.207031 0.441406 0.203125 0.421875 0.203125 C 0.398438 0.203125 0.378906 0.203125 0.359375 0.203125 C 0.347656 0.210938 0.34375 0.21875 0.34375 0.21875 Z M 0.3125 0.21875 "/></g></g><g style="fill:#000000;fill-opacity:1;"><g transform="translate(112.776062, 443.011271)"><path style="stroke:none" d="M 0.171875 -0.109375 C 0.0859375 -0.203125 0.046875 -0.3125 0.046875 -0.4375 C 0.046875 -0.570312 0.0859375 -0.6875 0.171875 -0.78125 C 0.253906 -0.875 0.359375 -0.921875 0.484375 -0.921875 C 0.609375 -0.921875 0.707031 -0.882812 0.78125 -0.8125 L 0.78125 -0.890625 L 1.09375 -0.890625 L 1.09375 0 L 0.78125 0 L 0.78125 -0.09375 C 0.707031 -0.0078125 0.609375 0.03125 0.484375 0.03125 C 0.359375 0.03125 0.253906 -0.015625 0.171875 -0.109375 Z M 0.421875 -0.59375 C 0.390625 -0.5625 0.375 -0.515625 0.375 -0.453125 C 0.375 -0.390625 0.390625 -0.335938 0.421875 -0.296875 C 0.460938 -0.253906 0.515625 -0.234375 0.578125 -0.234375 C 0.640625 -0.234375 0.6875 -0.253906 0.71875 -0.296875 C 0.757812 -0.335938 0.78125 -0.390625 0.78125 -0.453125 C 0.78125 -0.515625 0.757812 -0.5625 0.71875 -0.59375 C 0.6875 -0.632812 0.640625 -0.65625 0.578125 -0.65625 C 0.515625 -0.65625 0.460938 -0.632812 0.421875 -0.59375 Z M 0.421875 -0.59375 "/></g></g><g style="fill:#000000;fill-opacity:1;"><g transform="translate(113.971363, 443.011271)"><path style="stroke:none" d="M 0.109375 0 L 0.109375 -1.5 L 0.421875 -1.5 L 0.421875 0 Z M 0.109375 0 "/></g></g><g style="fill:#000000;fill-opacity:1;"><g transform="translate(114.491135, 443.011271)"><path style="stroke:none" d="M 0.109375 0 L 0.109375 -1.5 L 0.421875 -1.5 L 0.421875 -0.796875 C 0.492188 -0.878906 0.578125 -0.921875 0.671875 -0.921875 C 0.710938 -0.921875 0.753906 -0.914062 0.796875 -0.90625 C 0.847656 -0.894531 0.894531 -0.875 0.9375 -0.84375 C 0.976562 -0.820312 1.007812 -0.789062 1.03125 -0.75 C 1.050781 -0.707031 1.0625 -0.65625 1.0625 -0.59375 L 1.0625 0 L 0.765625 0 L 0.765625 -0.5 C 0.765625 -0.550781 0.75 -0.59375 0.71875 -0.625 C 0.6875 -0.664062 0.644531 -0.6875 0.59375 -0.6875 C 0.550781 -0.6875 0.507812 -0.664062 0.46875 -0.625 C 0.4375 -0.59375 0.421875 -0.550781 0.421875 -0.5 L 0.421875 0 Z M 0.109375 0 "/></g></g><g style="fill:#000000;fill-opacity:1;"><g transform="translate(115.647934, 443.011271)"><path style="stroke:none" d="M 0.1875 -0.09375 C 0.09375 -0.1875 0.046875 -0.300781 0.046875 -0.4375 C 0.046875 -0.582031 0.0976562 -0.695312 0.203125 -0.78125 C 0.304688 -0.875 0.429688 -0.921875 0.578125 -0.921875 C 0.734375 -0.921875 0.859375 -0.875 0.953125 -0.78125 C 1.054688 -0.695312 1.109375 -0.582031 1.109375 -0.4375 C 1.109375 -0.300781 1.054688 -0.1875 0.953125 -0.09375 C 0.859375 -0.0078125 0.734375 0.03125 0.578125 0.03125 C 0.421875 0.03125 0.289062 -0.0078125 0.1875 -0.09375 Z M 0.421875 -0.59375 C 0.390625 -0.5625 0.375 -0.515625 0.375 -0.453125 C 0.375 -0.390625 0.390625 -0.335938 0.421875 -0.296875 C 0.460938 -0.253906 0.515625 -0.234375 0.578125 -0.234375 C 0.640625 -0.234375 0.6875 -0.253906 0.71875 -0.296875 C 0.757812 -0.335938 0.78125 -0.390625 0.78125 -0.453125 C 0.78125 -0.515625 0.757812 -0.5625 0.71875 -0.59375 C 0.6875 -0.632812 0.640625 -0.65625 0.578125 -0.65625 C 0.515625 -0.65625 0.460938 -0.632812 0.421875 -0.59375 Z M 0.421875 -0.59375 "/></g></g><path style=" stroke:none;fill-rule:nonzero;fill:#000000;fill-opacity:1;" d="M 120.945312 551.761719 L 212.390625 551.761719 C 220.804688 551.761719 227.632812 544.933594 227.632812 536.519531 C 227.632812 528.101562 220.804688 521.277344 212.390625 521.277344 L 120.945312 521.277344 C 112.527344 521.277344 105.703125 528.101562 105.703125 536.519531 C 105.703125 544.933594 112.527344 551.761719 120.945312 551.761719 Z M 120.945312 551.761719 "/><path style=" stroke:none;fill-rule:nonzero;fill:#000000;fill-opacity:1;" d="M 120.945312 490.789062 L 242.871094 490.789062 C 251.289062 490.789062 258.113281 483.964844 258.113281 475.546875 C 258.113281 467.132812 251.289062 460.304688 242.871094 460.304688 L 120.945312 460.304688 C 112.527344 460.304688 105.703125 467.132812 105.703125 475.546875 C 105.703125 483.964844 112.527344 490.789062 120.945312 490.789062 Z M 120.945312 490.789062 "/><path style=" stroke:none;fill-rule:nonzero;fill:#000000;fill-opacity:1;" d="M 120.945312 429.820312 L 258.113281 429.820312 C 266.53125 429.820312 273.355469 422.996094 273.355469 414.578125 C 273.355469 406.160156 266.53125 399.335938 258.113281 399.335938 L 120.945312 399.335938 C 112.527344 399.335938 105.703125 406.160156 105.703125 414.578125 C 105.703125 422.996094 112.527344 429.820312 120.945312 429.820312 Z M 120.945312 429.820312 "/><path style=" stroke:none;fill-rule:nonzero;fill:#000000;fill-opacity:1;" d="M 120.945312 368.851562 L 197.148438 368.851562 C 205.566406 368.851562 212.390625 362.023438 212.390625 353.605469 C 212.390625 345.1875 205.566406 338.363281 197.148438 338.363281 L 120.945312 338.363281 C 112.527344 338.363281 105.703125 345.1875 105.703125 353.605469 C 105.703125 362.023438 112.527344 368.851562 120.945312 368.851562 Z M 120.945312 368.851562 "/><path style=" stroke:none;fill-rule:nonzero;fill:#000000;fill-opacity:1;" d="M 120.945312 613.113281 L 258.113281 613.113281 C 266.53125 613.113281 273.355469 606.285156 273.355469 597.871094 C 273.355469 589.453125 266.53125 582.628906 258.113281 582.628906 L 120.945312 582.628906 C 112.527344 582.628906 105.703125 589.453125 105.703125 597.871094 C 105.703125 606.285156 112.527344 613.113281 120.945312 613.113281 Z M 120.945312 613.113281 "/><path style=" stroke:none;fill-rule:nonzero;fill:#000000;fill-opacity:1;" d="M 120.945312 674.082031 L 288.597656 674.082031 C 297.011719 674.082031 303.835938 667.257812 303.835938 658.839844 C 303.835938 650.421875 297.011719 643.597656 288.597656 643.597656 L 120.945312 643.597656 C 112.527344 643.597656 105.703125 650.421875 105.703125 658.839844 C 105.703125 667.257812 112.527344 674.082031 120.945312 674.082031 Z M 120.945312 674.082031 "/><path style=" stroke:none;fill-rule:nonzero;fill:#000000;fill-opacity:1;" d="M 441.007812 704.566406 L 120.945312 704.566406 C 112.527344 704.566406 105.703125 711.394531 105.703125 719.8125 C 105.703125 728.226562 112.527344 735.054688 120.945312 735.054688 L 441.007812 735.054688 C 449.421875 735.054688 456.246094 728.226562 456.246094 719.8125 C 456.246094 711.394531 449.421875 704.566406 441.007812 704.566406 Z M 441.007812 704.566406 "/><path style=" stroke:none;fill-rule:nonzero;fill:#000000;fill-opacity:1;" d="M 136.183594 231.480469 L 364.800781 231.480469 C 373.21875 231.480469 380.042969 224.65625 380.042969 216.238281 L 380.042969 109.539062 C 380.042969 101.121094 373.21875 94.296875 364.800781 94.296875 L 136.183594 94.296875 C 127.769531 94.296875 120.945312 101.121094 120.945312 109.539062 L 120.945312 216.238281 C 120.945312 224.65625 127.765625 231.480469 136.183594 231.480469 Z M 151.425781 124.78125 L 349.558594 124.78125 L 349.558594 200.996094 L 151.425781 200.996094 Z M 151.425781 124.78125 "/><path style=" stroke:none;fill-rule:nonzero;fill:#000000;fill-opacity:1;" d="M 383.398438 417.882812 C 338.351562 462.933594 338.351562 536.238281 383.398438 581.292969 C 428.449219 626.34375 501.746094 626.34375 546.792969 581.292969 C 591.886719 536.195312 591.886719 462.980469 546.792969 417.882812 C 501.699219 372.78125 428.492188 372.785156 383.398438 417.882812 Z M 525.238281 559.734375 C 492.078125 592.902344 438.117188 592.90625 404.953125 559.734375 C 371.789062 526.566406 371.789062 472.601562 404.953125 439.4375 C 420.988281 423.402344 442.347656 414.570312 465.09375 414.570312 C 512.15625 414.570312 550.101562 452.503906 550.101562 499.585938 C 550.105469 522.339844 541.273438 543.699219 525.238281 559.734375 Z M 525.238281 559.734375 "/><g clip-rule="nonzero" clip-path="url(#4185d358a1)"><path style=" stroke:none;fill-rule:nonzero;fill:#000000;fill-opacity:1;" d="M 747.734375 717.582031 L 654.5625 624.402344 C 648.609375 618.453125 638.960938 618.453125 633.007812 624.402344 L 622.234375 635.179688 L 600.207031 613.152344 C 634.332031 572.609375 647.3125 520.207031 639.136719 470.640625 C 639.117188 198.855469 639.269531 215.546875 638.859375 213.378906 C 638.261719 210.328125 636.761719 207.546875 634.671875 205.460938 C 439.617188 10.476562 451.390625 21.570312 448.03125 19.808594 C 445.992188 18.75 443.515625 18.082031 441.007812 18.082031 L 105.703125 18.082031 C 72.085938 18.082031 44.738281 45.433594 44.738281 79.054688 L 44.738281 734.671875 C 44.738281 768.292969 72.085938 795.640625 105.703125 795.640625 L 578.175781 795.640625 C 610.605469 795.640625 637.191406 770.1875 639.03125 738.207031 L 683.074219 782.253906 C 700.898438 800.082031 729.910156 800.082031 747.734375 782.253906 C 765.5625 764.425781 765.5625 735.414062 747.734375 717.582031 Z M 568.347656 602.847656 C 511.414062 659.785156 418.777344 659.785156 361.847656 602.847656 C 304.914062 545.910156 304.914062 453.265625 361.847656 396.324219 C 418.777344 339.386719 511.414062 339.386719 568.347656 396.324219 C 625.28125 453.265625 625.28125 545.910156 568.347656 602.847656 Z M 456.246094 70.125 L 587.101562 200.996094 L 456.246094 200.996094 Z M 608.65625 734.671875 C 608.65625 751.480469 594.984375 765.15625 578.175781 765.15625 L 105.703125 765.15625 C 88.894531 765.15625 75.222656 751.480469 75.222656 734.671875 L 75.222656 79.054688 C 75.222656 62.246094 88.894531 48.570312 105.703125 48.570312 L 425.765625 48.570312 L 425.765625 216.238281 C 425.765625 224.65625 432.589844 231.480469 441.007812 231.480469 L 608.65625 231.480469 L 608.65625 396.890625 C 544.859375 307.792969 416.792969 298.265625 340.292969 374.769531 C 271.476562 443.59375 271.476562 555.582031 340.292969 624.402344 C 405.128906 689.246094 508.988281 693.355469 578.65625 634.710938 L 600.679688 656.738281 L 589.902344 667.515625 C 583.949219 673.46875 583.949219 683.121094 589.902344 689.074219 L 608.660156 707.832031 L 608.660156 734.671875 Z M 726.179688 760.699219 C 720.242188 766.640625 710.570312 766.640625 704.625 760.699219 L 622.234375 678.292969 C 624.34375 676.183594 618.425781 682.101562 643.789062 656.738281 L 726.179688 739.140625 C 732.121094 745.085938 732.121094 754.753906 726.179688 760.699219 Z M 726.179688 760.699219 "/></g></g></svg>