<svg xmlns="http://www.w3.org/2000/svg" xmlns:xlink="http://www.w3.org/1999/xlink" width="1080" zoomAndPan="magnify" viewBox="0 0 810 809.999993" height="1080" preserveAspectRatio="xMidYMid meet" version="1.2"><defs><clipPath id="9e48b24ec7"><path d="M 89 17.28125 L 721 17.28125 L 721 792.78125 L 89 792.78125 Z M 89 17.28125 "/></clipPath></defs><g id="32180b6741"><g style="fill:#000000;fill-opacity:1;"><g transform="translate(107.161822, 443.011271)"><path style="stroke:none" d="M 0.875 -0.296875 C 0.925781 -0.296875 0.972656 -0.300781 1.015625 -0.3125 C 1.066406 -0.332031 1.101562 -0.347656 1.125 -0.359375 L 1.15625 -0.390625 L 1.296875 -0.109375 C 1.296875 -0.0976562 1.289062 -0.0859375 1.28125 -0.078125 C 1.269531 -0.078125 1.25 -0.0664062 1.21875 -0.046875 C 1.1875 -0.0351562 1.15625 -0.0234375 1.125 -0.015625 C 1.09375 -0.00390625 1.046875 0.00390625 0.984375 0.015625 C 0.929688 0.0234375 0.878906 0.03125 0.828125 0.03125 C 0.691406 0.03125 0.5625 0 0.4375 -0.0625 C 0.320312 -0.132812 0.226562 -0.226562 0.15625 -0.34375 C 0.0820312 -0.457031 0.046875 -0.582031 0.046875 -0.71875 C 0.046875 -0.820312 0.0664062 -0.921875 0.109375 -1.015625 C 0.148438 -1.109375 0.207031 -1.1875 0.28125 -1.25 C 0.351562 -1.3125 0.4375 -1.363281 0.53125 -1.40625 C 0.625 -1.445312 0.722656 -1.46875 0.828125 -1.46875 C 0.921875 -1.46875 1.003906 -1.457031 1.078125 -1.4375 C 1.160156 -1.414062 1.21875 -1.394531 1.25 -1.375 L 1.296875 -1.34375 L 1.15625 -1.0625 C 1.144531 -1.0625 1.128906 -1.066406 1.109375 -1.078125 C 1.097656 -1.085938 1.066406 -1.097656 1.015625 -1.109375 C 0.972656 -1.128906 0.925781 -1.140625 0.875 -1.140625 C 0.789062 -1.140625 0.71875 -1.125 0.65625 -1.09375 C 0.59375 -1.070312 0.539062 -1.039062 0.5 -1 C 0.46875 -0.957031 0.441406 -0.910156 0.421875 -0.859375 C 0.398438 -0.816406 0.390625 -0.769531 0.390625 -0.71875 C 0.390625 -0.613281 0.429688 -0.515625 0.515625 -0.421875 C 0.597656 -0.335938 0.71875 -0.296875 0.875 -0.296875 Z M 0.875 -0.296875 "/></g></g><g style="fill:#000000;fill-opacity:1;"><g transform="translate(108.479627, 443.011271)"><path style="stroke:none" d="M 0.171875 -0.109375 C 0.0859375 -0.203125 0.046875 -0.3125 0.046875 -0.4375 C 0.046875 -0.570312 0.0859375 -0.6875 0.171875 -0.78125 C 0.253906 -0.875 0.359375 -0.921875 0.484375 -0.921875 C 0.609375 -0.921875 0.707031 -0.882812 0.78125 -0.8125 L 0.78125 -0.890625 L 1.09375 -0.890625 L 1.09375 0 L 0.78125 0 L 0.78125 -0.09375 C 0.707031 -0.0078125 0.609375 0.03125 0.484375 0.03125 C 0.359375 0.03125 0.253906 -0.015625 0.171875 -0.109375 Z M 0.421875 -0.59375 C 0.390625 -0.5625 0.375 -0.515625 0.375 -0.453125 C 0.375 -0.390625 0.390625 -0.335938 0.421875 -0.296875 C 0.460938 -0.253906 0.515625 -0.234375 0.578125 -0.234375 C 0.640625 -0.234375 0.6875 -0.253906 0.71875 -0.296875 C 0.757812 -0.335938 0.78125 -0.390625 0.78125 -0.453125 C 0.78125 -0.515625 0.757812 -0.5625 0.71875 -0.59375 C 0.6875 -0.632812 0.640625 -0.65625 0.578125 -0.65625 C 0.515625 -0.65625 0.460938 -0.632812 0.421875 -0.59375 Z M 0.421875 -0.59375 "/></g></g><g style="fill:#000000;fill-opacity:1;"><g transform="translate(109.674928, 443.011271)"><path style="stroke:none" d="M 1.03125 -0.78125 C 1.113281 -0.6875 1.15625 -0.570312 1.15625 -0.4375 C 1.15625 -0.3125 1.113281 -0.203125 1.03125 -0.109375 C 0.945312 -0.015625 0.835938 0.03125 0.703125 0.03125 C 0.585938 0.03125 0.492188 -0.0078125 0.421875 -0.09375 L 0.40625 -0.09375 L 0.40625 0 L 0.109375 0 L 0.109375 -1.5 L 0.421875 -1.5 L 0.421875 -0.8125 C 0.492188 -0.882812 0.585938 -0.921875 0.703125 -0.921875 C 0.835938 -0.921875 0.945312 -0.875 1.03125 -0.78125 Z M 0.765625 -0.296875 C 0.804688 -0.335938 0.828125 -0.390625 0.828125 -0.453125 C 0.828125 -0.515625 0.804688 -0.5625 0.765625 -0.59375 C 0.722656 -0.632812 0.671875 -0.65625 0.609375 -0.65625 C 0.554688 -0.65625 0.507812 -0.632812 0.46875 -0.59375 C 0.425781 -0.5625 0.40625 -0.515625 0.40625 -0.453125 C 0.40625 -0.390625 0.425781 -0.335938 0.46875 -0.296875 C 0.507812 -0.253906 0.554688 -0.234375 0.609375 -0.234375 C 0.671875 -0.234375 0.722656 -0.253906 0.765625 -0.296875 Z M 0.765625 -0.296875 "/></g></g><g style="fill:#000000;fill-opacity:1;"><g transform="translate(110.870229, 443.011271)"><path style="stroke:none" d="M 1.015625 -0.40625 L 0.359375 -0.40625 C 0.359375 -0.34375 0.378906 -0.296875 0.421875 -0.265625 C 0.460938 -0.234375 0.507812 -0.21875 0.5625 -0.21875 C 0.601562 -0.21875 0.640625 -0.222656 0.671875 -0.234375 C 0.703125 -0.253906 0.738281 -0.28125 0.78125 -0.3125 L 1 -0.203125 C 0.90625 -0.046875 0.75 0.03125 0.53125 0.03125 C 0.394531 0.03125 0.28125 -0.015625 0.1875 -0.109375 C 0.09375 -0.203125 0.046875 -0.3125 0.046875 -0.4375 C 0.046875 -0.570312 0.09375 -0.6875 0.1875 -0.78125 C 0.28125 -0.875 0.394531 -0.921875 0.53125 -0.921875 C 0.675781 -0.921875 0.789062 -0.878906 0.875 -0.796875 C 0.96875 -0.710938 1.015625 -0.597656 1.015625 -0.453125 C 1.015625 -0.429688 1.015625 -0.414062 1.015625 -0.40625 Z M 0.375 -0.578125 L 0.71875 -0.578125 C 0.707031 -0.617188 0.6875 -0.648438 0.65625 -0.671875 C 0.625 -0.703125 0.585938 -0.71875 0.546875 -0.71875 C 0.492188 -0.71875 0.453125 -0.703125 0.421875 -0.671875 C 0.390625 -0.648438 0.375 -0.617188 0.375 -0.578125 Z M 0.375 -0.578125 "/></g></g><g style="fill:#000000;fill-opacity:1;"><g transform="translate(111.925525, 443.011271)"><path style="stroke:none" d="M 0.3125 0.21875 L 0.375 0 C 0.28125 -0.03125 0.203125 -0.0859375 0.140625 -0.171875 C 0.078125 -0.253906 0.046875 -0.347656 0.046875 -0.453125 C 0.046875 -0.578125 0.09375 -0.6875 0.1875 -0.78125 C 0.289062 -0.875 0.40625 -0.921875 0.53125 -0.921875 C 0.59375 -0.921875 0.648438 -0.910156 0.703125 -0.890625 C 0.753906 -0.878906 0.789062 -0.867188 0.8125 -0.859375 L 0.84375 -0.84375 L 0.734375 -0.625 C 0.691406 -0.65625 0.640625 -0.671875 0.578125 -0.671875 C 0.523438 -0.671875 0.476562 -0.648438 0.4375 -0.609375 C 0.394531 -0.566406 0.375 -0.515625 0.375 -0.453125 C 0.375 -0.390625 0.394531 -0.335938 0.4375 -0.296875 C 0.476562 -0.253906 0.523438 -0.234375 0.578125 -0.234375 C 0.609375 -0.234375 0.632812 -0.234375 0.65625 -0.234375 C 0.6875 -0.242188 0.707031 -0.253906 0.71875 -0.265625 L 0.734375 -0.265625 L 0.84375 -0.046875 C 0.832031 -0.046875 0.816406 -0.0390625 0.796875 -0.03125 C 0.785156 -0.0195312 0.753906 -0.0078125 0.703125 0 C 0.648438 0.0195312 0.59375 0.03125 0.53125 0.03125 C 0.519531 0.03125 0.507812 0.03125 0.5 0.03125 L 0.484375 0.109375 C 0.535156 0.109375 0.582031 0.125 0.625 0.15625 C 0.675781 0.1875 0.703125 0.226562 0.703125 0.28125 C 0.703125 0.34375 0.679688 0.394531 0.640625 0.4375 C 0.597656 0.488281 0.53125 0.515625 0.4375 0.515625 C 0.394531 0.515625 0.347656 0.5 0.296875 0.46875 C 0.253906 0.445312 0.222656 0.425781 0.203125 0.40625 L 0.171875 0.375 L 0.296875 0.28125 C 0.296875 0.28125 0.300781 0.285156 0.3125 0.296875 C 0.320312 0.304688 0.335938 0.316406 0.359375 0.328125 C 0.390625 0.347656 0.414062 0.359375 0.4375 0.359375 C 0.46875 0.359375 0.488281 0.347656 0.5 0.328125 C 0.519531 0.316406 0.53125 0.300781 0.53125 0.28125 C 0.53125 0.257812 0.515625 0.238281 0.484375 0.21875 C 0.460938 0.207031 0.441406 0.203125 0.421875 0.203125 C 0.398438 0.203125 0.378906 0.203125 0.359375 0.203125 C 0.347656 0.210938 0.34375 0.21875 0.34375 0.21875 Z M 0.3125 0.21875 "/></g></g><g style="fill:#000000;fill-opacity:1;"><g transform="translate(112.776062, 443.011271)"><path style="stroke:none" d="M 0.171875 -0.109375 C 0.0859375 -0.203125 0.046875 -0.3125 0.046875 -0.4375 C 0.046875 -0.570312 0.0859375 -0.6875 0.171875 -0.78125 C 0.253906 -0.875 0.359375 -0.921875 0.484375 -0.921875 C 0.609375 -0.921875 0.707031 -0.882812 0.78125 -0.8125 L 0.78125 -0.890625 L 1.09375 -0.890625 L 1.09375 0 L 0.78125 0 L 0.78125 -0.09375 C 0.707031 -0.0078125 0.609375 0.03125 0.484375 0.03125 C 0.359375 0.03125 0.253906 -0.015625 0.171875 -0.109375 Z M 0.421875 -0.59375 C 0.390625 -0.5625 0.375 -0.515625 0.375 -0.453125 C 0.375 -0.390625 0.390625 -0.335938 0.421875 -0.296875 C 0.460938 -0.253906 0.515625 -0.234375 0.578125 -0.234375 C 0.640625 -0.234375 0.6875 -0.253906 0.71875 -0.296875 C 0.757812 -0.335938 0.78125 -0.390625 0.78125 -0.453125 C 0.78125 -0.515625 0.757812 -0.5625 0.71875 -0.59375 C 0.6875 -0.632812 0.640625 -0.65625 0.578125 -0.65625 C 0.515625 -0.65625 0.460938 -0.632812 0.421875 -0.59375 Z M 0.421875 -0.59375 "/></g></g><g style="fill:#000000;fill-opacity:1;"><g transform="translate(113.971363, 443.011271)"><path style="stroke:none" d="M 0.109375 0 L 0.109375 -1.5 L 0.421875 -1.5 L 0.421875 0 Z M 0.109375 0 "/></g></g><g style="fill:#000000;fill-opacity:1;"><g transform="translate(114.491135, 443.011271)"><path style="stroke:none" d="M 0.109375 0 L 0.109375 -1.5 L 0.421875 -1.5 L 0.421875 -0.796875 C 0.492188 -0.878906 0.578125 -0.921875 0.671875 -0.921875 C 0.710938 -0.921875 0.753906 -0.914062 0.796875 -0.90625 C 0.847656 -0.894531 0.894531 -0.875 0.9375 -0.84375 C 0.976562 -0.820312 1.007812 -0.789062 1.03125 -0.75 C 1.050781 -0.707031 1.0625 -0.65625 1.0625 -0.59375 L 1.0625 0 L 0.765625 0 L 0.765625 -0.5 C 0.765625 -0.550781 0.75 -0.59375 0.71875 -0.625 C 0.6875 -0.664062 0.644531 -0.6875 0.59375 -0.6875 C 0.550781 -0.6875 0.507812 -0.664062 0.46875 -0.625 C 0.4375 -0.59375 0.421875 -0.550781 0.421875 -0.5 L 0.421875 0 Z M 0.109375 0 "/></g></g><g style="fill:#000000;fill-opacity:1;"><g transform="translate(115.647934, 443.011271)"><path style="stroke:none" d="M 0.1875 -0.09375 C 0.09375 -0.1875 0.046875 -0.300781 0.046875 -0.4375 C 0.046875 -0.582031 0.0976562 -0.695312 0.203125 -0.78125 C 0.304688 -0.875 0.429688 -0.921875 0.578125 -0.921875 C 0.734375 -0.921875 0.859375 -0.875 0.953125 -0.78125 C 1.054688 -0.695312 1.109375 -0.582031 1.109375 -0.4375 C 1.109375 -0.300781 1.054688 -0.1875 0.953125 -0.09375 C 0.859375 -0.0078125 0.734375 0.03125 0.578125 0.03125 C 0.421875 0.03125 0.289062 -0.0078125 0.1875 -0.09375 Z M 0.421875 -0.59375 C 0.390625 -0.5625 0.375 -0.515625 0.375 -0.453125 C 0.375 -0.390625 0.390625 -0.335938 0.421875 -0.296875 C 0.460938 -0.253906 0.515625 -0.234375 0.578125 -0.234375 C 0.640625 -0.234375 0.6875 -0.253906 0.71875 -0.296875 C 0.757812 -0.335938 0.78125 -0.390625 0.78125 -0.453125 C 0.78125 -0.515625 0.757812 -0.5625 0.71875 -0.59375 C 0.6875 -0.632812 0.640625 -0.65625 0.578125 -0.65625 C 0.515625 -0.65625 0.460938 -0.632812 0.421875 -0.59375 Z M 0.421875 -0.59375 "/></g></g><g clip-rule="nonzero" clip-path="url(#9e48b24ec7)"><path style=" stroke:none;fill-rule:nonzero;fill:#000000;fill-opacity:1;" d="M 351.082031 472.011719 L 526.402344 296.5 C 526.855469 296.066406 527.328125 295.65625 527.820312 295.265625 C 528.316406 294.875 528.824219 294.507812 529.351562 294.167969 C 529.878906 293.828125 530.421875 293.511719 530.980469 293.222656 C 531.539062 292.933594 532.105469 292.671875 532.691406 292.433594 C 533.273438 292.199219 533.863281 291.992188 534.46875 291.8125 C 535.070312 291.636719 535.679688 291.484375 536.296875 291.363281 C 536.910156 291.242188 537.53125 291.152344 538.15625 291.089844 C 538.78125 291.03125 539.410156 290.996094 540.039062 290.996094 C 540.664062 290.992188 541.292969 291.023438 541.917969 291.078125 C 542.542969 291.136719 543.164062 291.226562 543.78125 291.34375 C 544.398438 291.460938 545.011719 291.605469 545.613281 291.78125 C 546.214844 291.957031 546.808594 292.160156 547.394531 292.390625 C 547.976562 292.621094 548.550781 292.882812 549.109375 293.167969 C 549.667969 293.453125 550.210938 293.765625 550.742188 294.105469 C 551.269531 294.441406 551.785156 294.804688 552.277344 295.191406 C 552.773438 295.578125 553.25 295.988281 553.707031 296.421875 C 554.152344 296.867188 554.578125 297.335938 554.980469 297.824219 C 555.378906 298.3125 555.757812 298.816406 556.109375 299.34375 C 556.460938 299.867188 556.785156 300.410156 557.085938 300.964844 C 557.382812 301.523438 557.65625 302.09375 557.898438 302.675781 C 558.140625 303.261719 558.355469 303.855469 558.539062 304.460938 C 558.726562 305.0625 558.878906 305.675781 559.003906 306.296875 C 559.128906 306.917969 559.222656 307.539062 559.289062 308.167969 C 559.351562 308.796875 559.382812 309.429688 559.386719 310.0625 C 559.386719 310.695312 559.359375 311.324219 559.296875 311.953125 C 559.238281 312.582031 559.148438 313.207031 559.027344 313.828125 C 558.90625 314.449219 558.753906 315.0625 558.574219 315.667969 C 558.390625 316.273438 558.183594 316.871094 557.941406 317.453125 C 557.703125 318.039062 557.433594 318.613281 557.140625 319.171875 C 556.84375 319.730469 556.523438 320.273438 556.171875 320.800781 C 555.824219 321.328125 555.449219 321.835938 555.050781 322.328125 C 554.652344 322.816406 554.230469 323.289062 553.785156 323.738281 L 362.527344 515.207031 C 361.636719 516.109375 360.664062 516.914062 359.609375 517.625 C 358.558594 518.332031 357.445312 518.929688 356.277344 519.417969 C 355.105469 519.90625 353.894531 520.277344 352.652344 520.523438 C 351.40625 520.773438 350.152344 520.898438 348.882812 520.894531 L 348.820312 520.894531 C 347.558594 520.898438 346.308594 520.777344 345.070312 520.535156 C 343.832031 520.292969 342.632812 519.929688 341.464844 519.449219 C 340.296875 518.96875 339.191406 518.378906 338.140625 517.675781 C 337.089844 516.976562 336.117188 516.179688 335.226562 515.289062 C 334.441406 514.507812 333.734375 513.667969 333.097656 512.761719 L 254.332031 419.140625 C 253.957031 418.625 253.605469 418.097656 253.28125 417.550781 C 252.960938 417 252.664062 416.441406 252.394531 415.863281 C 252.125 415.285156 251.886719 414.699219 251.675781 414.097656 C 251.46875 413.496094 251.289062 412.886719 251.136719 412.269531 C 250.988281 411.652344 250.867188 411.027344 250.78125 410.398438 C 250.691406 409.769531 250.632812 409.136719 250.609375 408.5 C 250.582031 407.867188 250.589844 407.230469 250.625 406.597656 C 250.664062 405.960938 250.730469 405.328125 250.828125 404.703125 C 250.929688 404.074219 251.058594 403.453125 251.21875 402.835938 C 251.378906 402.222656 251.570312 401.613281 251.789062 401.019531 C 252.011719 400.421875 252.261719 399.835938 252.539062 399.265625 C 252.816406 398.695312 253.121094 398.136719 253.457031 397.59375 C 253.789062 397.054688 254.148438 396.53125 254.53125 396.023438 C 254.917969 395.519531 255.328125 395.03125 255.757812 394.566406 C 256.191406 394.101562 256.648438 393.65625 257.125 393.234375 C 257.601562 392.816406 258.097656 392.417969 258.613281 392.046875 C 259.128906 391.675781 259.660156 391.328125 260.210938 391.011719 C 260.761719 390.691406 261.324219 390.398438 261.902344 390.136719 C 262.484375 389.871094 263.074219 389.636719 263.675781 389.433594 C 264.277344 389.226562 264.886719 389.054688 265.507812 388.90625 C 266.125 388.761719 266.75 388.648438 267.378906 388.566406 C 268.011719 388.484375 268.644531 388.429688 269.277344 388.410156 C 269.914062 388.390625 270.550781 388.398438 271.183594 388.441406 C 271.820312 388.484375 272.449219 388.558594 273.078125 388.660156 C 273.703125 388.765625 274.324219 388.902344 274.9375 389.066406 C 275.550781 389.234375 276.15625 389.429688 276.75 389.652344 C 277.34375 389.878906 277.925781 390.132812 278.496094 390.417969 C 279.066406 390.699219 279.621094 391.007812 280.160156 391.347656 C 280.699219 391.683594 281.21875 392.046875 281.722656 392.4375 C 282.226562 392.824219 282.707031 393.238281 283.167969 393.675781 C 283.632812 394.113281 284.070312 394.570312 284.488281 395.050781 C 284.90625 395.53125 285.296875 396.03125 285.664062 396.550781 Z M 720.554688 457.546875 C 721.027344 515.0625 687.609375 582.925781 626.445312 648.617188 C 600.09375 676.855469 571.230469 702.238281 539.855469 724.765625 L 538.503906 725.644531 C 537.949219 725.953125 537.429688 726.316406 536.949219 726.730469 L 535.671875 727.753906 C 517.078125 741.171875 497.621094 753.195312 477.300781 763.820312 C 456.980469 774.449219 436.007812 783.570312 414.382812 791.183594 L 408.878906 793.007812 L 403.34375 791.265625 C 390.105469 787.046875 377.128906 782.140625 364.410156 776.542969 C 363.625 776.140625 362.816406 775.78125 361.984375 775.46875 L 360.902344 775.019531 C 344.835938 767.546875 329.148438 759.347656 313.839844 750.421875 C 298.53125 741.5 283.664062 731.890625 269.246094 721.59375 C 254.824219 711.296875 240.90625 700.355469 227.496094 688.773438 C 214.082031 677.195312 201.234375 665.019531 188.945312 652.25 C 162.898438 625.710938 140.628906 596.3125 122.136719 564.050781 L 121.464844 562.699219 C 121.171875 562.097656 120.832031 561.523438 120.441406 560.980469 L 119.691406 559.730469 C 115.445312 552.367188 111.65625 544.769531 108.328125 536.945312 C 105 529.121094 102.15625 521.125 99.792969 512.953125 C 97.433594 504.785156 95.570312 496.503906 94.210938 488.109375 C 92.851562 479.714844 92.003906 471.269531 91.664062 462.773438 L 89.402344 186.089844 L 90.753906 185.355469 L 402.421875 17.28125 L 403.621094 17.90625 L 718.253906 180.976562 Z M 682.707031 202.796875 L 402.792969 57.785156 L 125.378906 207.371094 L 127.488281 462.488281 C 127.816406 469.476562 128.5625 476.421875 129.722656 483.320312 C 130.882812 490.21875 132.449219 497.027344 134.421875 503.738281 C 136.394531 510.453125 138.761719 517.023438 141.523438 523.449219 C 144.285156 529.878906 147.417969 536.121094 150.921875 542.175781 C 151.988281 543.816406 152.933594 545.523438 153.765625 547.292969 C 170.695312 576.585938 191.015625 603.304688 214.722656 627.441406 C 226.183594 639.351562 238.164062 650.710938 250.664062 661.519531 C 263.167969 672.328125 276.136719 682.542969 289.578125 692.160156 C 303.019531 701.773438 316.875 710.753906 331.140625 719.097656 C 345.40625 727.4375 360.027344 735.109375 374.996094 742.109375 C 376.601562 742.699219 378.167969 743.382812 379.691406 744.152344 C 389.246094 748.246094 399.261719 752.144531 408.550781 755.273438 C 427.363281 748.28125 445.625 740.070312 463.335938 730.632812 C 481.050781 721.195312 498.054688 710.625 514.351562 698.914062 C 516.019531 697.535156 517.777344 696.285156 519.632812 695.167969 C 548.8125 674.144531 575.675781 650.488281 600.21875 624.195312 C 655.121094 565.226562 685.121094 506.132812 684.734375 457.800781 Z M 682.707031 202.796875 "/></g></g></svg>