<svg xmlns="http://www.w3.org/2000/svg" xmlns:xlink="http://www.w3.org/1999/xlink" width="1080" zoomAndPan="magnify" viewBox="0 0 810 809.999993" height="1080" preserveAspectRatio="xMidYMid meet" version="1.2"><defs><clipPath id="ffa59e9abd"><path d="M 13 116.445312 L 797 116.445312 L 797 349 L 13 349 Z M 13 116.445312 "/></clipPath><clipPath id="162cc0843f"><path d="M 353 591 L 455 591 L 455 693.195312 L 353 693.195312 Z M 353 591 "/></clipPath></defs><g id="de3f4a76a5"><g style="fill:#17aeff;fill-opacity:1;"><g transform="translate(381.640472, 406.283401)"><path style="stroke:none" d="M 0.875 -0.296875 C 0.925781 -0.296875 0.972656 -0.300781 1.015625 -0.3125 C 1.066406 -0.332031 1.101562 -0.347656 1.125 -0.359375 L 1.15625 -0.390625 L 1.296875 -0.109375 C 1.296875 -0.0976562 1.289062 -0.0859375 1.28125 -0.078125 C 1.269531 -0.078125 1.25 -0.0664062 1.21875 -0.046875 C 1.1875 -0.0351562 1.15625 -0.0234375 1.125 -0.015625 C 1.09375 -0.00390625 1.046875 0.00390625 0.984375 0.015625 C 0.929688 0.0234375 0.878906 0.03125 0.828125 0.03125 C 0.691406 0.03125 0.5625 0 0.4375 -0.0625 C 0.320312 -0.132812 0.226562 -0.226562 0.15625 -0.34375 C 0.0820312 -0.457031 0.046875 -0.582031 0.046875 -0.71875 C 0.046875 -0.820312 0.0664062 -0.921875 0.109375 -1.015625 C 0.148438 -1.109375 0.207031 -1.1875 0.28125 -1.25 C 0.351562 -1.3125 0.4375 -1.363281 0.53125 -1.40625 C 0.625 -1.445312 0.722656 -1.46875 0.828125 -1.46875 C 0.921875 -1.46875 1.003906 -1.457031 1.078125 -1.4375 C 1.160156 -1.414062 1.21875 -1.394531 1.25 -1.375 L 1.296875 -1.34375 L 1.15625 -1.0625 C 1.144531 -1.0625 1.128906 -1.066406 1.109375 -1.078125 C 1.097656 -1.085938 1.066406 -1.097656 1.015625 -1.109375 C 0.972656 -1.128906 0.925781 -1.140625 0.875 -1.140625 C 0.789062 -1.140625 0.71875 -1.125 0.65625 -1.09375 C 0.59375 -1.070312 0.539062 -1.039062 0.5 -1 C 0.46875 -0.957031 0.441406 -0.910156 0.421875 -0.859375 C 0.398438 -0.816406 0.390625 -0.769531 0.390625 -0.71875 C 0.390625 -0.613281 0.429688 -0.515625 0.515625 -0.421875 C 0.597656 -0.335938 0.71875 -0.296875 0.875 -0.296875 Z M 0.875 -0.296875 "/></g></g><g style="fill:#17aeff;fill-opacity:1;"><g transform="translate(382.958277, 406.283401)"><path style="stroke:none" d="M 0.171875 -0.109375 C 0.0859375 -0.203125 0.046875 -0.3125 0.046875 -0.4375 C 0.046875 -0.570312 0.0859375 -0.6875 0.171875 -0.78125 C 0.253906 -0.875 0.359375 -0.921875 0.484375 -0.921875 C 0.609375 -0.921875 0.707031 -0.882812 0.78125 -0.8125 L 0.78125 -0.890625 L 1.09375 -0.890625 L 1.09375 0 L 0.78125 0 L 0.78125 -0.09375 C 0.707031 -0.0078125 0.609375 0.03125 0.484375 0.03125 C 0.359375 0.03125 0.253906 -0.015625 0.171875 -0.109375 Z M 0.421875 -0.59375 C 0.390625 -0.5625 0.375 -0.515625 0.375 -0.453125 C 0.375 -0.390625 0.390625 -0.335938 0.421875 -0.296875 C 0.460938 -0.253906 0.515625 -0.234375 0.578125 -0.234375 C 0.640625 -0.234375 0.6875 -0.253906 0.71875 -0.296875 C 0.757812 -0.335938 0.78125 -0.390625 0.78125 -0.453125 C 0.78125 -0.515625 0.757812 -0.5625 0.71875 -0.59375 C 0.6875 -0.632812 0.640625 -0.65625 0.578125 -0.65625 C 0.515625 -0.65625 0.460938 -0.632812 0.421875 -0.59375 Z M 0.421875 -0.59375 "/></g></g><g style="fill:#17aeff;fill-opacity:1;"><g transform="translate(384.153578, 406.283401)"><path style="stroke:none" d="M 1.03125 -0.78125 C 1.113281 -0.6875 1.15625 -0.570312 1.15625 -0.4375 C 1.15625 -0.3125 1.113281 -0.203125 1.03125 -0.109375 C 0.945312 -0.015625 0.835938 0.03125 0.703125 0.03125 C 0.585938 0.03125 0.492188 -0.0078125 0.421875 -0.09375 L 0.40625 -0.09375 L 0.40625 0 L 0.109375 0 L 0.109375 -1.5 L 0.421875 -1.5 L 0.421875 -0.8125 C 0.492188 -0.882812 0.585938 -0.921875 0.703125 -0.921875 C 0.835938 -0.921875 0.945312 -0.875 1.03125 -0.78125 Z M 0.765625 -0.296875 C 0.804688 -0.335938 0.828125 -0.390625 0.828125 -0.453125 C 0.828125 -0.515625 0.804688 -0.5625 0.765625 -0.59375 C 0.722656 -0.632812 0.671875 -0.65625 0.609375 -0.65625 C 0.554688 -0.65625 0.507812 -0.632812 0.46875 -0.59375 C 0.425781 -0.5625 0.40625 -0.515625 0.40625 -0.453125 C 0.40625 -0.390625 0.425781 -0.335938 0.46875 -0.296875 C 0.507812 -0.253906 0.554688 -0.234375 0.609375 -0.234375 C 0.671875 -0.234375 0.722656 -0.253906 0.765625 -0.296875 Z M 0.765625 -0.296875 "/></g></g><g style="fill:#17aeff;fill-opacity:1;"><g transform="translate(385.34888, 406.283401)"><path style="stroke:none" d="M 1.015625 -0.40625 L 0.359375 -0.40625 C 0.359375 -0.34375 0.378906 -0.296875 0.421875 -0.265625 C 0.460938 -0.234375 0.507812 -0.21875 0.5625 -0.21875 C 0.601562 -0.21875 0.640625 -0.222656 0.671875 -0.234375 C 0.703125 -0.253906 0.738281 -0.28125 0.78125 -0.3125 L 1 -0.203125 C 0.90625 -0.046875 0.75 0.03125 0.53125 0.03125 C 0.394531 0.03125 0.28125 -0.015625 0.1875 -0.109375 C 0.09375 -0.203125 0.046875 -0.3125 0.046875 -0.4375 C 0.046875 -0.570312 0.09375 -0.6875 0.1875 -0.78125 C 0.28125 -0.875 0.394531 -0.921875 0.53125 -0.921875 C 0.675781 -0.921875 0.789062 -0.878906 0.875 -0.796875 C 0.96875 -0.710938 1.015625 -0.597656 1.015625 -0.453125 C 1.015625 -0.429688 1.015625 -0.414062 1.015625 -0.40625 Z M 0.375 -0.578125 L 0.71875 -0.578125 C 0.707031 -0.617188 0.6875 -0.648438 0.65625 -0.671875 C 0.625 -0.703125 0.585938 -0.71875 0.546875 -0.71875 C 0.492188 -0.71875 0.453125 -0.703125 0.421875 -0.671875 C 0.390625 -0.648438 0.375 -0.617188 0.375 -0.578125 Z M 0.375 -0.578125 "/></g></g><g style="fill:#17aeff;fill-opacity:1;"><g transform="translate(386.404175, 406.283401)"><path style="stroke:none" d="M 0.3125 0.21875 L 0.375 0 C 0.28125 -0.03125 0.203125 -0.0859375 0.140625 -0.171875 C 0.078125 -0.253906 0.046875 -0.347656 0.046875 -0.453125 C 0.046875 -0.578125 0.09375 -0.6875 0.1875 -0.78125 C 0.289062 -0.875 0.40625 -0.921875 0.53125 -0.921875 C 0.59375 -0.921875 0.648438 -0.910156 0.703125 -0.890625 C 0.753906 -0.878906 0.789062 -0.867188 0.8125 -0.859375 L 0.84375 -0.84375 L 0.734375 -0.625 C 0.691406 -0.65625 0.640625 -0.671875 0.578125 -0.671875 C 0.523438 -0.671875 0.476562 -0.648438 0.4375 -0.609375 C 0.394531 -0.566406 0.375 -0.515625 0.375 -0.453125 C 0.375 -0.390625 0.394531 -0.335938 0.4375 -0.296875 C 0.476562 -0.253906 0.523438 -0.234375 0.578125 -0.234375 C 0.609375 -0.234375 0.632812 -0.234375 0.65625 -0.234375 C 0.6875 -0.242188 0.707031 -0.253906 0.71875 -0.265625 L 0.734375 -0.265625 L 0.84375 -0.046875 C 0.832031 -0.046875 0.816406 -0.0390625 0.796875 -0.03125 C 0.785156 -0.0195312 0.753906 -0.0078125 0.703125 0 C 0.648438 0.0195312 0.59375 0.03125 0.53125 0.03125 C 0.519531 0.03125 0.507812 0.03125 0.5 0.03125 L 0.484375 0.109375 C 0.535156 0.109375 0.582031 0.125 0.625 0.15625 C 0.675781 0.1875 0.703125 0.226562 0.703125 0.28125 C 0.703125 0.34375 0.679688 0.394531 0.640625 0.4375 C 0.597656 0.488281 0.53125 0.515625 0.4375 0.515625 C 0.394531 0.515625 0.347656 0.5 0.296875 0.46875 C 0.253906 0.445312 0.222656 0.425781 0.203125 0.40625 L 0.171875 0.375 L 0.296875 0.28125 C 0.296875 0.28125 0.300781 0.285156 0.3125 0.296875 C 0.320312 0.304688 0.335938 0.316406 0.359375 0.328125 C 0.390625 0.347656 0.414062 0.359375 0.4375 0.359375 C 0.46875 0.359375 0.488281 0.347656 0.5 0.328125 C 0.519531 0.316406 0.53125 0.300781 0.53125 0.28125 C 0.53125 0.257812 0.515625 0.238281 0.484375 0.21875 C 0.460938 0.207031 0.441406 0.203125 0.421875 0.203125 C 0.398438 0.203125 0.378906 0.203125 0.359375 0.203125 C 0.347656 0.210938 0.34375 0.21875 0.34375 0.21875 Z M 0.3125 0.21875 "/></g></g><g style="fill:#17aeff;fill-opacity:1;"><g transform="translate(387.254712, 406.283401)"><path style="stroke:none" d="M 0.171875 -0.109375 C 0.0859375 -0.203125 0.046875 -0.3125 0.046875 -0.4375 C 0.046875 -0.570312 0.0859375 -0.6875 0.171875 -0.78125 C 0.253906 -0.875 0.359375 -0.921875 0.484375 -0.921875 C 0.609375 -0.921875 0.707031 -0.882812 0.78125 -0.8125 L 0.78125 -0.890625 L 1.09375 -0.890625 L 1.09375 0 L 0.78125 0 L 0.78125 -0.09375 C 0.707031 -0.0078125 0.609375 0.03125 0.484375 0.03125 C 0.359375 0.03125 0.253906 -0.015625 0.171875 -0.109375 Z M 0.421875 -0.59375 C 0.390625 -0.5625 0.375 -0.515625 0.375 -0.453125 C 0.375 -0.390625 0.390625 -0.335938 0.421875 -0.296875 C 0.460938 -0.253906 0.515625 -0.234375 0.578125 -0.234375 C 0.640625 -0.234375 0.6875 -0.253906 0.71875 -0.296875 C 0.757812 -0.335938 0.78125 -0.390625 0.78125 -0.453125 C 0.78125 -0.515625 0.757812 -0.5625 0.71875 -0.59375 C 0.6875 -0.632812 0.640625 -0.65625 0.578125 -0.65625 C 0.515625 -0.65625 0.460938 -0.632812 0.421875 -0.59375 Z M 0.421875 -0.59375 "/></g></g><g style="fill:#17aeff;fill-opacity:1;"><g transform="translate(388.450013, 406.283401)"><path style="stroke:none" d="M 0.109375 0 L 0.109375 -1.5 L 0.421875 -1.5 L 0.421875 0 Z M 0.109375 0 "/></g></g><g style="fill:#17aeff;fill-opacity:1;"><g transform="translate(388.969785, 406.283401)"><path style="stroke:none" d="M 0.109375 0 L 0.109375 -1.5 L 0.421875 -1.5 L 0.421875 -0.796875 C 0.492188 -0.878906 0.578125 -0.921875 0.671875 -0.921875 C 0.710938 -0.921875 0.753906 -0.914062 0.796875 -0.90625 C 0.847656 -0.894531 0.894531 -0.875 0.9375 -0.84375 C 0.976562 -0.820312 1.007812 -0.789062 1.03125 -0.75 C 1.050781 -0.707031 1.0625 -0.65625 1.0625 -0.59375 L 1.0625 0 L 0.765625 0 L 0.765625 -0.5 C 0.765625 -0.550781 0.75 -0.59375 0.71875 -0.625 C 0.6875 -0.664062 0.644531 -0.6875 0.59375 -0.6875 C 0.550781 -0.6875 0.507812 -0.664062 0.46875 -0.625 C 0.4375 -0.59375 0.421875 -0.550781 0.421875 -0.5 L 0.421875 0 Z M 0.109375 0 "/></g></g><g style="fill:#17aeff;fill-opacity:1;"><g transform="translate(390.126584, 406.283401)"><path style="stroke:none" d="M 0.1875 -0.09375 C 0.09375 -0.1875 0.046875 -0.300781 0.046875 -0.4375 C 0.046875 -0.582031 0.0976562 -0.695312 0.203125 -0.78125 C 0.304688 -0.875 0.429688 -0.921875 0.578125 -0.921875 C 0.734375 -0.921875 0.859375 -0.875 0.953125 -0.78125 C 1.054688 -0.695312 1.109375 -0.582031 1.109375 -0.4375 C 1.109375 -0.300781 1.054688 -0.1875 0.953125 -0.09375 C 0.859375 -0.0078125 0.734375 0.03125 0.578125 0.03125 C 0.421875 0.03125 0.289062 -0.0078125 0.1875 -0.09375 Z M 0.421875 -0.59375 C 0.390625 -0.5625 0.375 -0.515625 0.375 -0.453125 C 0.375 -0.390625 0.390625 -0.335938 0.421875 -0.296875 C 0.460938 -0.253906 0.515625 -0.234375 0.578125 -0.234375 C 0.640625 -0.234375 0.6875 -0.253906 0.71875 -0.296875 C 0.757812 -0.335938 0.78125 -0.390625 0.78125 -0.453125 C 0.78125 -0.515625 0.757812 -0.5625 0.71875 -0.59375 C 0.6875 -0.632812 0.640625 -0.65625 0.578125 -0.65625 C 0.515625 -0.65625 0.460938 -0.632812 0.421875 -0.59375 Z M 0.421875 -0.59375 "/></g></g><g clip-rule="nonzero" clip-path="url(#ffa59e9abd)"><path style=" stroke:none;fill-rule:nonzero;fill:#00000d;fill-opacity:1;" d="M 783.78125 273.429688 C 732.613281 222.28125 672.964844 182.675781 606.484375 155.703125 C 542.285156 129.65625 474.480469 116.453125 404.929688 116.453125 C 335.378906 116.453125 267.574219 129.65625 203.378906 155.703125 C 136.90625 182.671875 77.253906 222.28125 26.09375 273.429688 C 8.976562 290.539062 8.976562 318.277344 26.09375 335.386719 C 43.207031 352.496094 70.960938 352.496094 88.074219 335.386719 C 262.792969 160.738281 547.074219 160.738281 721.789062 335.386719 C 730.347656 343.941406 741.5625 348.21875 752.78125 348.21875 C 764 348.21875 775.214844 343.941406 783.773438 335.386719 C 800.890625 318.277344 800.890625 290.539062 783.773438 273.429688 Z M 783.78125 273.429688 "/></g><path style=" stroke:none;fill-rule:nonzero;fill:#00000d;fill-opacity:1;" d="M 404.835938 275.9375 C 303.371094 275.9375 207.929688 315.484375 136.085938 387.289062 C 119.90625 403.464844 119.90625 429.691406 136.085938 445.867188 C 152.269531 462.042969 178.503906 462.042969 194.683594 445.867188 C 310.558594 330.035156 499.097656 330.035156 614.960938 445.867188 C 623.050781 453.953125 633.65625 457.996094 644.257812 457.996094 C 654.863281 457.996094 665.46875 453.953125 673.558594 445.867188 C 689.738281 429.691406 689.738281 403.464844 673.558594 387.289062 C 601.722656 315.484375 506.273438 275.9375 404.808594 275.9375 Z M 404.835938 275.9375 "/><path style=" stroke:none;fill-rule:nonzero;fill:#00000d;fill-opacity:1;" d="M 404.835938 425.433594 C 343.144531 425.433594 285.117188 449.472656 241.445312 493.128906 C 225.347656 509.222656 225.347656 535.308594 241.445312 551.402344 C 257.542969 567.492188 283.640625 567.492188 299.738281 551.402344 C 357.6875 493.476562 451.984375 493.476562 509.929688 551.402344 C 517.980469 559.449219 528.527344 563.46875 539.078125 563.46875 C 549.628906 563.46875 560.175781 559.449219 568.226562 551.402344 C 584.324219 535.308594 584.324219 509.222656 568.226562 493.128906 C 524.554688 449.472656 466.527344 425.433594 404.835938 425.433594 Z M 404.835938 425.433594 "/><g clip-rule="nonzero" clip-path="url(#162cc0843f)"><path style=" stroke:none;fill-rule:nonzero;fill:#000000;fill-opacity:1;" d="M 454.996094 642.445312 C 454.996094 644.105469 454.914062 645.765625 454.75 647.417969 C 454.585938 649.070312 454.34375 650.710938 454.019531 652.339844 C 453.695312 653.96875 453.292969 655.578125 452.808594 657.167969 C 452.328125 658.757812 451.769531 660.320312 451.132812 661.851562 C 450.496094 663.386719 449.789062 664.886719 449.003906 666.351562 C 448.222656 667.816406 447.367188 669.238281 446.445312 670.621094 C 445.523438 672 444.53125 673.332031 443.480469 674.617188 C 442.425781 675.902344 441.308594 677.132812 440.136719 678.304688 C 438.960938 679.480469 437.730469 680.59375 436.445312 681.648438 C 435.164062 682.703125 433.828125 683.6875 432.449219 684.613281 C 431.066406 685.535156 429.644531 686.386719 428.175781 687.171875 C 426.710938 687.953125 425.210938 688.664062 423.675781 689.296875 C 422.140625 689.933594 420.578125 690.492188 418.988281 690.976562 C 417.398438 691.457031 415.789062 691.859375 414.160156 692.183594 C 412.53125 692.507812 410.886719 692.753906 409.234375 692.914062 C 407.582031 693.078125 405.921875 693.160156 404.261719 693.160156 C 402.601562 693.160156 400.941406 693.078125 399.289062 692.914062 C 397.636719 692.753906 395.996094 692.507812 394.363281 692.183594 C 392.734375 691.859375 391.125 691.457031 389.535156 690.976562 C 387.945312 690.492188 386.382812 689.933594 384.847656 689.296875 C 383.3125 688.664062 381.8125 687.953125 380.347656 687.171875 C 378.882812 686.386719 377.457031 685.535156 376.078125 684.613281 C 374.695312 683.691406 373.363281 682.703125 372.078125 681.648438 C 370.792969 680.59375 369.5625 679.480469 368.386719 678.304688 C 367.214844 677.132812 366.097656 675.902344 365.046875 674.617188 C 363.992188 673.335938 363.003906 672 362.078125 670.621094 C 361.15625 669.238281 360.304688 667.816406 359.519531 666.351562 C 358.738281 664.886719 358.027344 663.386719 357.390625 661.851562 C 356.753906 660.320312 356.195312 658.757812 355.714844 657.167969 C 355.230469 655.578125 354.828125 653.96875 354.503906 652.339844 C 354.179688 650.710938 353.9375 649.070312 353.773438 647.417969 C 353.609375 645.765625 353.527344 644.105469 353.527344 642.445312 C 353.527344 640.785156 353.609375 639.128906 353.773438 637.476562 C 353.9375 635.824219 354.179688 634.179688 354.503906 632.550781 C 354.828125 630.921875 355.230469 629.3125 355.714844 627.726562 C 356.195312 626.136719 356.753906 624.574219 357.390625 623.039062 C 358.027344 621.503906 358.738281 620.003906 359.519531 618.539062 C 360.304688 617.074219 361.15625 615.652344 362.078125 614.269531 C 363.003906 612.890625 363.992188 611.558594 365.046875 610.273438 C 366.097656 608.988281 367.214844 607.761719 368.386719 606.585938 C 369.5625 605.410156 370.792969 604.296875 372.078125 603.242188 C 373.363281 602.191406 374.695312 601.203125 376.078125 600.28125 C 377.457031 599.355469 378.882812 598.503906 380.347656 597.722656 C 381.8125 596.9375 383.3125 596.230469 384.847656 595.59375 C 386.382812 594.957031 387.945312 594.398438 389.535156 593.917969 C 391.125 593.433594 392.734375 593.03125 394.363281 592.707031 C 395.996094 592.382812 397.636719 592.140625 399.289062 591.976562 C 400.941406 591.8125 402.601562 591.734375 404.261719 591.734375 C 405.921875 591.734375 407.582031 591.8125 409.234375 591.976562 C 410.886719 592.140625 412.53125 592.382812 414.160156 592.707031 C 415.789062 593.03125 417.398438 593.433594 418.988281 593.917969 C 420.578125 594.398438 422.140625 594.957031 423.675781 595.59375 C 425.210938 596.230469 426.710938 596.9375 428.175781 597.722656 C 429.644531 598.503906 431.066406 599.355469 432.449219 600.28125 C 433.828125 601.203125 435.164062 602.191406 436.445312 603.246094 C 437.730469 604.296875 438.960938 605.410156 440.136719 606.585938 C 441.308594 607.761719 442.425781 608.988281 443.480469 610.273438 C 444.53125 611.558594 445.523438 612.890625 446.445312 614.269531 C 447.367188 615.652344 448.222656 617.074219 449.003906 618.539062 C 449.789062 620.003906 450.496094 621.503906 451.132812 623.039062 C 451.769531 624.574219 452.328125 626.136719 452.808594 627.726562 C 453.292969 629.3125 453.695312 630.921875 454.019531 632.550781 C 454.34375 634.179688 454.585938 635.820312 454.75 637.476562 C 454.914062 639.128906 454.996094 640.785156 454.996094 642.445312 Z M 454.996094 642.445312 "/></g></g></svg>